<svg xmlns:xlink="http://www.w3.org/1999/xlink" xmlns="http://www.w3.org/2000/svg" width="46" height="43" viewBox="0 0 46 43" fill="none"><script xmlns="" src="chrome-extension://hoklmmgfnpapgjgcpechhaamimifchmp/frame_ant/frame_ant.js"/>
<path d="M20.4984 2.85934L35.1833 27.1555C36.1464 28.9378 34.902 31.1381 32.9192 31.1381H3.54956C1.56673 31.1381 0.322356 28.9378 1.28549 27.1555L15.9703 2.85934C16.9601 1.03379 19.5086 1.03379 20.4984 2.85934Z" stroke="#8139E7" stroke-width="1.5" stroke-linecap="round" stroke-linejoin="round"/>
<path d="M32.9358 42.5098C32.9358 42.5098 20.8379 36.36 20.8379 29.0941C20.8455 28.3092 21.0126 27.534 21.3289 26.8156C21.6453 26.0973 22.1043 25.4506 22.6781 24.915C23.8812 23.7879 25.4698 23.1635 27.1183 23.1698C28.331 23.1247 29.53 23.4386 30.5649 24.0722C31.5998 24.7059 32.4246 25.631 32.9358 26.7315C33.449 25.63 34.276 24.7045 35.3129 24.0709C36.3499 23.4373 37.5508 23.1239 38.7651 23.1698C40.4137 23.1635 42.0022 23.7879 43.2053 24.915C43.782 25.4534 44.2427 26.1038 44.5592 26.8265C44.8756 27.5492 45.0411 28.3289 45.0455 29.1178C45.0455 36.36 32.9358 42.5098 32.9358 42.5098Z" fill="#8139E7"/>
<path d="M18.2344 18.1454V11.4828" stroke="#8139E7" stroke-width="1.5" stroke-linecap="round" stroke-linejoin="round"/>
<path d="M18.2332 26.1405C19.337 26.1405 20.2319 25.2456 20.2319 24.1417C20.2319 23.0378 19.337 22.1429 18.2332 22.1429C17.1293 22.1429 16.2344 23.0378 16.2344 24.1417C16.2344 25.2456 17.1293 26.1405 18.2332 26.1405Z" fill="#8139E7"/>
</svg>