<svg xmlns:xlink="http://www.w3.org/1999/xlink" xmlns="http://www.w3.org/2000/svg" width="32" height="38" viewBox="0 0 32 38" fill="none"><script xmlns="" src="chrome-extension://hoklmmgfnpapgjgcpechhaamimifchmp/frame_ant/frame_ant.js"/>
<path d="M5.37316 22.6921L2.33216 19.6348C1.42845 18.6282 1.49119 17.0612 2.51191 16.1737C3.74692 15.1001 5.23853 15.2425 6.60677 16.6453M11.1535 6.08776C10.0298 4.83653 10.0298 3.18209 11.3043 2.07467C12.5527 0.991215 14.1776 1.55867 15.2822 2.78875L23.579 11.5086L23.419 9.96339C23.0884 8.34772 23.849 6.78422 25.4633 6.43317C27.0902 6.08071 28.7496 7.39115 29.1049 9.01739C29.1528 15.8741 29.3297 15.5322 30.0495 19.2048C30.4446 21.1729 30.3763 23.2059 29.85 25.1431C29.3403 26.9836 28.4782 28.4315 27.3532 29.443C25.2524 31.3353 22.5516 32.4259 19.726 32.5228M9.12825 19.2302L3.48892 13.4457C3.25601 13.1864 3.07644 12.8838 2.96049 12.5551C2.84453 12.2264 2.79445 11.8781 2.8131 11.53C2.83176 11.182 2.91879 10.8411 3.06921 10.5266C3.21964 10.2122 3.43053 9.93054 3.68982 9.69764C4.78103 8.7178 6.06821 8.69454 7.51752 9.93519M12.5753 14.9838L6.06962 8.49223C5.82901 8.23433 5.64221 7.93106 5.52015 7.60015C5.39809 7.26923 5.34322 6.9173 5.35874 6.56493C5.37425 6.21256 5.45985 5.86682 5.61053 5.54791C5.76121 5.22901 5.97394 4.94333 6.2363 4.70759C6.49865 4.47184 6.80536 4.29076 7.13851 4.17492C7.47165 4.05907 7.82455 4.0108 8.17657 4.03291C8.52858 4.05502 8.87266 4.14708 9.18869 4.3037C9.50472 4.46032 9.78636 4.67837 10.0172 4.94509L17.8502 12.8021M19.9311 23.4343C20.7516 22.6589 21.8597 22.6364 22.6211 23.4738C23.3669 24.2929 23.0116 25.3905 22.2044 26.149L16.4946 31.8419L17.5273 31.7065C18.6044 31.4605 19.6632 31.9462 19.924 33.0198C20.1849 34.0934 19.3305 35.2396 18.2449 35.499C13.6531 35.64 13.8843 35.7499 11.4354 36.2885C10.1233 36.5839 8.76044 36.5697 7.45478 36.2469C6.21342 35.9339 5.23218 35.3806 4.53643 34.6404C3.8097 33.8675 3.24233 32.9589 2.86674 31.9667C2.49114 30.9745 2.31467 29.918 2.3474 28.8576C2.38013 27.7971 2.62142 26.7535 3.05749 25.7864C3.49356 24.8192 4.11587 23.9474 4.88889 23.2207L10.7214 17.7344C11.3819 17.1134 12.4329 17.131 13.0427 17.8014C13.7807 18.612 13.7201 19.5813 12.7522 20.5505M10.1342 23.1763L14.8839 18.4104C15.054 18.2503 15.2539 18.1253 15.4723 18.0426C15.6907 17.9598 15.9232 17.9209 16.1567 17.928C16.3901 17.9351 16.6199 17.9882 16.8328 18.0842C17.0457 18.1801 17.2377 18.3171 17.3976 18.4872C18.0708 19.2027 18.1061 20.0648 17.2975 21.0552M13.9936 24.5248L18.2414 20.0662C18.585 19.743 19.043 19.5695 19.5145 19.5839C19.9861 19.5983 20.4326 19.7995 20.7558 20.1431C21.0791 20.4867 21.2526 20.9447 21.2382 21.4162C21.2238 21.8878 21.0226 22.3343 20.679 22.6575L15.5366 28.0219" stroke="#8139E7" stroke-width="1.5" stroke-linecap="round" stroke-linejoin="round"/>
</svg>