<svg xmlns:xlink="http://www.w3.org/1999/xlink" xmlns="http://www.w3.org/2000/svg" width="39" height="42" viewBox="0 0 39 42" fill="none"><script xmlns="" src="chrome-extension://hoklmmgfnpapgjgcpechhaamimifchmp/frame_ant/frame_ant.js"/>
<path d="M19.4615 13.3077V17.9231M19.4615 13.3077C20.6856 13.3077 21.8596 12.8214 22.7251 11.9559C23.5907 11.0903 24.0769 9.91638 24.0769 8.69231C24.0769 4.07692 19.4615 1 19.4615 1C19.4615 1 14.8462 4.07692 14.8462 8.69231C14.8462 9.91638 15.3324 11.0903 16.198 11.9559C17.0635 12.8214 18.2375 13.3077 19.4615 13.3077ZM36.3846 29.6346V37.9231C36.3846 38.7391 36.0604 39.5218 35.4834 40.0988C34.9064 40.6758 34.1237 41 33.3077 41H5.61538C4.79933 41 4.01671 40.6758 3.43967 40.0988C2.86264 39.5218 2.53846 38.7391 2.53846 37.9231V29.6346M4.07692 17.9231H34.8462C35.6622 17.9231 36.4448 18.2473 37.0219 18.8243C37.5989 19.4013 37.9231 20.1839 37.9231 21V25.4865C37.9231 28.8404 35.2942 31.675 31.9423 31.7673C31.1199 31.7904 30.3012 31.6484 29.5346 31.3497C28.768 31.0509 28.0691 30.6015 27.4792 30.0279C26.8894 29.4544 26.4205 28.7683 26.1004 28.0104C25.7802 27.2525 25.6153 26.4381 25.6154 25.6154C25.6154 27.2475 24.967 28.8127 23.813 29.9668C22.6589 31.1209 21.0936 31.7692 19.4615 31.7692C17.8294 31.7692 16.2642 31.1209 15.1101 29.9668C13.956 28.8127 13.3077 27.2475 13.3077 25.6154C13.308 26.4383 13.1433 27.2529 12.8233 28.011C12.5032 28.7692 12.0344 29.4554 11.4445 30.0292C10.8546 30.6029 10.1556 31.0525 9.38893 31.3514C8.62222 31.6503 7.80335 31.7924 6.98077 31.7692C3.62885 31.675 1 28.8404 1 25.4865V21C1 20.1839 1.32417 19.4013 1.90121 18.8243C2.47824 18.2473 3.26087 17.9231 4.07692 17.9231Z" stroke="#FF5528" stroke-width="1.5" stroke-linecap="round" stroke-linejoin="round"/>
<path d="M4.07692 17.9231H34.8462C35.6622 17.9231 36.4448 18.2473 37.0219 18.8243C37.5989 19.4013 37.9231 20.184 37.9231 21V25.4866C37.9231 28.8404 35.2942 31.675 31.9423 31.7673C31.1199 31.7905 30.3012 31.6485 29.5346 31.3497C28.768 31.0509 28.0691 30.6015 27.4792 30.0279C26.8894 29.4544 26.4205 28.7684 26.1004 28.0105C25.7802 27.2526 25.6153 26.4381 25.6154 25.6154C25.6154 27.2475 24.967 28.8128 23.813 29.9668C22.6589 31.1209 21.0936 31.7693 19.4615 31.7693C17.8294 31.7693 16.2642 31.1209 15.1101 29.9668C13.956 28.8128 13.3077 27.2475 13.3077 25.6154C13.308 26.4383 13.1433 27.2529 12.8233 28.0111C12.5032 28.7692 12.0344 29.4554 11.4445 30.0292C10.8546 30.6029 10.1556 31.0526 9.38893 31.3514C8.62222 31.6503 7.80335 31.7924 6.98077 31.7693C3.62885 31.675 1 28.8404 1 25.4866V21C1 20.184 1.32417 19.4013 1.90121 18.8243C2.47824 18.2473 3.26087 17.9231 4.07692 17.9231Z" fill="#FF5528"/>
</svg>