<svg xmlns:xlink="http://www.w3.org/1999/xlink" xmlns="http://www.w3.org/2000/svg" width="28" height="28" viewBox="0 0 28 28" fill="none">
<path d="M3.06843 20.0118H14.1384M3.73847 6.96179H24.3884M26.3884 13.4918H1.55842M26.4785 12.4018C26.171 10.0433 25.1982 7.82116 23.6738 5.99548C22.1493 4.1698 20.1364 2.81612 17.8706 2.09288C15.6047 1.36963 13.1798 1.30676 10.8796 1.91161C8.57933 2.51646 6.49896 3.76401 4.88196 5.50823C3.26497 7.25246 2.17825 9.4212 1.74903 11.7606C1.31981 14.1 1.56579 16.5132 2.45826 18.7179C3.35072 20.9226 4.85276 22.8274 6.78846 24.2094C8.72416 25.5915 11.0134 26.3936 13.3884 26.5218C6.85843 17.8218 6.73844 8.62179 13.2684 1.52179M14.8585 1.52179C17.6925 4.45716 19.3964 8.30067 19.6685 12.3718M19.5284 11.3218C19.7784 13.0696 19.7784 14.844 19.5284 16.5918M18.9584 25.5418C18.3963 25.7786 17.8182 25.9758 17.2285 26.1318C14.9259 26.7421 12.4966 26.6797 10.2285 25.9518M25.6185 9.35178C26.5067 11.5516 26.7494 13.9589 26.3184 16.2918C26.2484 16.6818 26.1584 17.0618 26.0584 17.4418M20.0232 25.9584C20.0232 25.9584 13.9374 22.6809 13.9374 18.8178C13.9374 17.9791 14.2705 17.1748 14.8636 16.5817C15.4566 15.9887 16.2609 15.6555 17.0996 15.6555C18.4257 15.6555 19.554 16.3757 20.0252 17.5284C20.4975 16.3757 21.6298 15.6555 22.9519 15.6555C23.7906 15.6555 24.5949 15.9887 25.188 16.5817C25.781 17.1748 26.1142 17.9791 26.1142 18.8178C26.1101 22.6809 20.0232 25.9584 20.0232 25.9584Z" stroke="#FFA415" stroke-width="1.2" stroke-linecap="round" stroke-linejoin="round"/>
</svg>