<svg xmlns:xlink="http://www.w3.org/1999/xlink" xmlns="http://www.w3.org/2000/svg" width="40" height="38" viewBox="0 0 40 38" fill="none"><script xmlns="" src="chrome-extension://hoklmmgfnpapgjgcpechhaamimifchmp/frame_ant/frame_ant.js"/>
<path d="M1.73901 7.58696V22.8043M1.73901 7.58696L19.9999 13.6739L38.2607 7.58696L19.9999 1.5L1.73901 7.58696ZM6.30423 36.5C9.29064 31.9196 14.1241 28.8913 19.9999 28.8913C25.8757 28.8913 30.7091 31.9196 33.6955 36.5M27.8635 11.0527C29.2571 12.5778 30.1772 14.4753 30.5116 16.5141C30.846 18.5528 30.5803 20.6448 29.747 22.5352C28.9136 24.4256 27.5485 26.0329 25.8179 27.1613C24.0872 28.2897 22.0659 28.8905 19.9999 28.8905C17.9339 28.8905 15.9125 28.2897 14.1819 27.1613C12.4513 26.0329 11.0862 24.4256 10.2528 22.5352C9.41943 20.6448 9.15377 18.5528 9.48819 16.5141C9.8226 14.4753 10.7427 12.5778 12.1363 11.0527" stroke="#122F2A" stroke-width="1.5" stroke-linecap="round" stroke-linejoin="round"/>
</svg>