<svg xmlns:xlink="http://www.w3.org/1999/xlink" xmlns="http://www.w3.org/2000/svg" width="26" height="26" viewBox="0 0 26 26" fill="none"><script xmlns="" src="chrome-extension://hoklmmgfnpapgjgcpechhaamimifchmp/frame_ant/frame_ant.js"/>
<path d="M20.9002 11.965C21.1799 12.5949 21.3263 13.2758 21.3302 13.965C21.3302 19.655 13.0002 24.485 13.0002 24.485C13.0002 24.485 4.67022 19.655 4.67022 13.965C4.66684 13.2504 4.82044 12.5437 5.1202 11.895M8.55023 9.365C8.69672 9.35474 8.84375 9.35474 8.99023 9.365C9.86047 9.35518 10.7124 9.6153 11.4287 10.1096C12.145 10.6038 12.6905 11.3079 12.9902 12.125C13.2899 11.3079 13.8355 10.6038 14.5518 10.1096C15.2681 9.6153 16.12 9.35518 16.9902 9.365C17.1434 9.35473 17.2971 9.35473 17.4502 9.365M4.90024 3.51498L2.49023 6.51498C1.84715 7.31074 1.49443 8.30187 1.49023 9.32498V14.505C1.49275 14.9023 1.65069 15.2827 1.93024 15.565C2.21149 15.8459 2.59273 16.0037 2.99023 16.0037C3.38774 16.0037 3.76898 15.8459 4.05023 15.565C4.32978 15.2827 4.48772 14.9023 4.49023 14.505V10.625M9.00022 3.51498V7.14499C9.00215 8.03551 8.73747 8.90622 8.24024 9.64499L7.10022 11.365C7.0008 11.5274 6.87192 11.6699 6.72022 11.785C6.5677 11.8957 6.39416 11.9739 6.21024 12.015C6.02185 12.05 5.82862 12.05 5.64023 12.015C5.4563 11.9748 5.28047 11.9038 5.12021 11.805C4.8372 11.6141 4.63433 11.3258 4.55023 10.995C4.4515 10.6614 4.4874 10.3024 4.65024 9.995L6.00022 7.745M9.00022 3.51498C9.06625 3.51635 9.13191 3.50436 9.19319 3.47972C9.25447 3.45507 9.31012 3.4183 9.35682 3.37159C9.40353 3.32489 9.4403 3.26924 9.46495 3.20796C9.48959 3.14668 9.50159 3.08103 9.50023 3.015V2.015C9.50159 1.94896 9.48959 1.88334 9.46495 1.82206C9.4403 1.76079 9.40353 1.70513 9.35682 1.65843C9.31012 1.61173 9.25447 1.57492 9.19319 1.55028C9.13191 1.52563 9.06626 1.51363 9.00023 1.515H4.00023C3.93419 1.51363 3.86857 1.52563 3.80729 1.55028C3.74602 1.57492 3.69036 1.61173 3.64366 1.65843C3.59696 1.70513 3.56018 1.76079 3.53553 1.82206C3.51089 1.88334 3.49886 1.94896 3.50023 2.015V3.015C3.49886 3.08103 3.51089 3.14668 3.53553 3.20796C3.56018 3.26924 3.59696 3.32489 3.64366 3.37159C3.69036 3.4183 3.74602 3.45507 3.80729 3.47972C3.86857 3.50436 3.93419 3.51636 4.00023 3.515L9.00022 3.51498ZM21.1002 3.51498L23.5102 6.51498C24.1533 7.31074 24.506 8.30187 24.5102 9.32498V14.505C24.5016 14.901 24.3446 15.2793 24.0702 15.565C23.9325 15.7065 23.7651 15.8157 23.5802 15.885C23.4008 15.9648 23.2066 16.0057 23.0102 16.005C22.6125 16.0047 22.2313 15.8464 21.9502 15.565C21.6707 15.2827 21.5127 14.9023 21.5102 14.505V10.625M17.0002 3.51498V7.14499C16.9983 8.03551 17.263 8.90622 17.7602 9.64499L18.9002 11.355C18.9997 11.5174 19.1285 11.6599 19.2802 11.775C19.4327 11.8857 19.6063 11.964 19.7902 12.005C19.9753 12.0399 20.1652 12.0399 20.3502 12.005C20.5379 11.9667 20.7173 11.8956 20.8802 11.795C21.1607 11.6015 21.3628 11.3143 21.4502 10.985C21.5438 10.6509 21.5081 10.2939 21.3502 9.98499L20.0002 7.73499M17.0002 3.51498L22.0002 3.515C22.0663 3.51636 22.1319 3.50436 22.1932 3.47972C22.2545 3.45507 22.3101 3.4183 22.3568 3.37159C22.4035 3.32489 22.4403 3.26924 22.4649 3.20796C22.4896 3.14668 22.5016 3.08103 22.5002 3.015V2.015C22.5016 1.94896 22.4896 1.88334 22.4649 1.82206C22.4403 1.76079 22.4035 1.70513 22.3568 1.65843C22.3101 1.61173 22.2545 1.57492 22.1932 1.55028C22.1319 1.52563 22.0663 1.51363 22.0002 1.515H17.0002C16.9342 1.51363 16.8686 1.52563 16.8073 1.55028C16.746 1.57492 16.6904 1.61173 16.6437 1.65843C16.597 1.70513 16.5602 1.76079 16.5355 1.82206C16.5109 1.88334 16.4989 1.94896 16.5002 2.015V3.015C16.4989 3.08103 16.5109 3.14668 16.5355 3.20796C16.5602 3.26924 16.597 3.32489 16.6437 3.37159C16.6904 3.4183 16.746 3.45507 16.8073 3.47972C16.8686 3.50436 16.9342 3.51635 17.0002 3.51498Z" stroke="#18B628" stroke-width="1.2" stroke-linecap="round" stroke-linejoin="round"/>
</svg>