<svg xmlns:xlink="http://www.w3.org/1999/xlink" xmlns="http://www.w3.org/2000/svg" width="32" height="25" viewBox="0 0 32 25" fill="none"><script xmlns="" src="chrome-extension://hoklmmgfnpapgjgcpechhaamimifchmp/frame_ant/frame_ant.js"/>
<path d="M6.35743 23.4998H2.07149C1.78731 23.4998 1.51477 23.387 1.31383 23.186C1.11289 22.9851 1 22.7125 1 22.4284V17.0709C1 16.7868 1.11289 16.5142 1.31383 16.3133C1.51477 16.1123 1.78731 15.9995 2.07149 15.9995H6.35743M6.35743 23.4998H16.0008L24.5727 21.3569L29.7721 19.1389C30.1094 18.9698 30.3983 18.7177 30.6114 18.4062C30.8245 18.0948 30.9548 17.7342 30.9902 17.3585C31.0256 16.9827 30.9648 16.6042 30.8135 16.2584C30.6623 15.9127 30.4256 15.6111 30.1256 15.382C29.8529 15.1758 29.5369 15.0343 29.2015 14.9681C28.8655 14.9025 28.5189 14.9158 28.1889 15.007L19.2152 17.0709H18.6795C19.3899 17.0709 20.0713 16.7887 20.5736 16.2864C21.076 15.784 21.3582 15.1027 21.3582 14.3922C21.3582 13.6818 21.076 13.0004 20.5736 12.4981C20.0713 11.9957 19.3899 11.7135 18.6795 11.7135H11.9827C11.5601 11.7117 11.1413 11.7937 10.7505 11.9546C10.3597 12.1155 10.0047 12.3522 9.70581 12.6511L6.35743 15.9995M6.35743 23.4998V15.9995M20.8225 4.15954V5.42389M20.8225 11.7483V12.6109M18.9246 11.7537H21.7707C21.9822 11.7598 22.1928 11.7235 22.39 11.6468C22.5873 11.5701 22.7671 11.4547 22.9189 11.3072C23.0706 11.1598 23.1913 10.9834 23.2737 10.7885C23.3561 10.5936 23.3985 10.3842 23.3985 10.1726C23.3985 9.96099 23.3561 9.75154 23.2737 9.55665C23.1913 9.36175 23.0706 9.18537 22.9189 9.03794C22.7671 8.89051 22.5873 8.77504 22.39 8.69835C22.1928 8.62166 21.9822 8.58532 21.7707 8.59147H19.8742C19.6627 8.59763 19.4521 8.56129 19.2549 8.4846C19.0577 8.40791 18.8779 8.29243 18.7261 8.14501C18.5743 7.99758 18.4537 7.82119 18.3713 7.6263C18.2889 7.4314 18.2464 7.22196 18.2464 7.01036C18.2464 6.79877 18.2889 6.58932 18.3713 6.39442C18.4537 6.19953 18.5743 6.02315 18.7261 5.87572C18.8779 5.72829 19.0577 5.61281 19.2549 5.53613C19.4521 5.45944 19.6627 5.4231 19.8742 5.42925H22.719M13.8525 11.597C13.2054 10.0973 13.0594 8.42896 13.4361 6.8397C13.8127 5.25044 14.692 3.82507 15.9433 2.77533C17.1945 1.72558 18.751 1.10746 20.3816 1.01277C22.0121 0.918083 23.6297 1.35189 24.9941 2.24974C26.3584 3.1476 27.3968 4.4616 27.9549 5.99658C28.513 7.53156 28.561 9.20562 28.092 10.7701C27.6229 12.3346 26.6616 13.706 25.351 14.6807C24.0404 15.6553 22.4504 16.1812 20.8171 16.1803" stroke="white" stroke-width="1.5" stroke-linecap="round" stroke-linejoin="round"/>
</svg>