<svg xmlns:xlink="http://www.w3.org/1999/xlink" xmlns="http://www.w3.org/2000/svg" width="78" height="81" viewBox="0 0 78 81" fill="none"><script xmlns="" src="chrome-extension://hoklmmgfnpapgjgcpechhaamimifchmp/frame_ant/frame_ant.js"/>
<path d="M64.4154 22.2972C63.804 21.6083 63.1191 20.9885 62.3729 20.4487C61.6354 19.911 60.8352 19.4652 59.9899 19.121C59.1235 18.7654 58.217 18.5162 57.2904 18.3789C50.4616 17.1841 42.6524 20.9321 39.2176 27.1788C37.9683 25.3064 36.7189 23.121 34.6594 21.7491C33.8709 21.0842 33.0257 20.4896 32.1335 19.9721C31.4095 19.5511 30.651 19.1924 29.8663 18.8998C20.7907 16.5611 10.1697 23.4307 9.54671 32.8025C9.54671 33.7386 9.85989 34.6748 9.96202 35.6926C10.1257 36.6006 10.3532 37.4958 10.6429 38.3717C11.773 41.8644 13.8087 45.0405 16.1168 48.0566C16.6955 48.809 17.2878 49.5511 17.8904 50.2898C19.555 51.8557 20.8043 54.0344 22.6767 55.2905C26.7787 57.6326 30.0229 60.5875 33.2535 63.6138L35.1973 65.4384C36.7325 66.5346 38.2951 69.3464 39.5444 68.4103C40.3886 67.8792 41.2204 67.3357 42.0397 66.7797C42.8589 66.2237 43.6657 65.6563 44.46 65.0776C52.6641 57.1628 62.6588 50.2898 66.5873 39.5019C66.8142 38.6509 66.998 37.7942 67.1387 36.9318C67.9966 31.7676 67.4281 26.5013 64.4154 22.2972ZM44.2286 52.2914C44.2107 52.375 44.1691 52.4516 44.1087 52.512C44.0483 52.5724 43.9717 52.614 43.8881 52.6319C41.7605 52.9212 39.6567 52.4855 37.5393 52.6727C36.5555 52.7578 35.2926 52.8123 35.33 51.5562C35.3565 50.8057 35.4293 50.0577 35.5479 49.3162C35.4972 49.2399 35.4744 49.1486 35.4832 49.0575C35.5654 48.3512 35.7206 47.6553 35.9462 46.9809C36.0347 46.4873 36.1164 45.9903 36.1879 45.4933C36.3356 44.2419 36.547 42.999 36.8211 41.7691C36.9504 41.2313 37.1615 40.6525 37.3351 40.067C36.7607 39.848 36.2959 39.4113 36.0415 38.8517C35.7862 38.3086 35.6971 37.7021 35.7856 37.1085C35.874 36.5149 36.136 35.9607 36.5385 35.5156C36.9464 35.0213 37.4968 34.6647 38.1146 34.4944C38.9349 34.2311 39.8214 34.2636 40.6201 34.5863C41.0796 34.63 41.5122 34.8224 41.8524 35.1343C42.1819 35.4606 42.4091 35.8758 42.506 36.3292C42.6884 36.8206 42.7359 37.3519 42.6437 37.8678C42.5516 38.3838 42.323 38.8657 41.9818 39.2636C41.8394 39.4543 41.6696 39.6229 41.478 39.764C42.1384 41.3606 42.0567 43.1682 42.4992 44.8703C42.8737 46.2797 43.2754 47.7128 43.7418 49.0949C44.1196 50.1774 44.4192 51.1442 44.2286 52.2914Z" fill="#FFA415"/>
<path d="M8.86587 63.8793C8.31779 63.1984 7.79014 62.4938 7.28973 61.7789L8.49821 60.9381C8.9782 61.6189 9.48543 62.2997 10.0131 62.9568L8.86587 63.8793ZM6.86761 61.1559C6.38421 60.4308 5.92124 59.6785 5.50593 58.9228L6.7825 58.1943C7.19781 58.9194 7.64376 59.6411 8.11014 60.3389L6.86761 61.1559ZM5.12126 58.2692C4.70255 57.5032 4.30766 56.7135 3.94341 55.9237L5.28126 55.3109C5.62168 56.0701 6.00976 56.8292 6.41485 57.5645L5.12126 58.2692ZM3.63704 55.2394C3.29662 54.4395 2.9562 53.6191 2.67365 52.7987L4.05915 52.305C4.3417 53.0948 4.65148 53.8846 4.9885 54.6539L3.63704 55.2394ZM2.42855 52.094C2.15621 51.2702 1.9043 50.4225 1.68644 49.5783L3.11279 49.2106C3.32045 50.0208 3.56214 50.8378 3.82767 51.631L2.42855 52.094ZM1.50942 48.8498C1.30857 48.0022 1.13496 47.1477 0.991981 46.2796L2.44557 46.0379C2.58174 46.8652 2.74854 47.6958 2.93918 48.5128L1.50942 48.8498ZM0.879642 45.5375C0.757091 44.6797 0.658371 43.8014 0.593691 42.9299L2.0609 42.821C2.12557 43.6584 2.21749 44.5026 2.33664 45.3299L0.879642 45.5375ZM0.539223 42.1844C0.501777 41.4831 0.481353 40.7683 0.481353 40.0636C0.481353 39.8934 0.481353 39.7232 0.481353 39.5598L1.95196 39.5768C1.95196 39.7402 1.95196 39.9002 1.95196 40.0636C1.95196 40.7444 1.97239 41.4253 2.00983 42.1061L0.539223 42.1844ZM1.97239 38.8551L0.501777 38.8074C0.52901 37.936 0.590286 37.0543 0.675391 36.1896L2.13919 36.3394C2.0643 37.17 2.00643 38.0177 1.9792 38.8551H1.97239ZM2.22089 35.6211L0.760496 35.4441C0.862621 34.5794 1.00219 33.7046 1.16559 32.8501L2.60897 33.1293C2.45919 33.9497 2.32642 34.7905 2.2277 35.6211H2.22089ZM2.75194 32.4212L1.31538 32.1148C1.34602 31.965 1.38006 31.8152 1.4141 31.6655V31.6042L2.08813 29.5889L3.49066 30.0349L2.86088 32.0263C2.81662 32.1523 2.78939 32.285 2.76897 32.4212H2.75194Z" fill="#FFA415"/>
<path d="M71.1727 59.6002L69.9098 58.8411C70.3421 58.1228 70.7506 57.3807 71.1319 56.6352L72.4425 57.316C72.0476 58.0786 71.6187 58.8649 71.1727 59.6002ZM72.7761 56.6284L71.4519 55.9884C71.8195 55.2327 72.1633 54.4565 72.4731 53.6804L73.8348 54.2284C73.5148 55.0352 73.1573 55.8454 72.7761 56.6284ZM74.1139 53.5272L72.7352 53.0063C73.0314 52.2234 73.3037 51.42 73.5454 50.6234L74.9548 51.0489C74.7028 51.8761 74.4203 52.7136 74.1139 53.5272ZM75.1658 50.3204L73.7463 49.9255C73.9743 49.1153 74.1718 48.2915 74.342 47.4711L75.782 47.7673C75.6186 48.6217 75.4007 49.4796 75.1658 50.3204ZM75.9284 47.032L74.4816 46.7631C74.6314 45.9392 74.7573 45.1018 74.8526 44.2678L76.3164 44.4346C76.2177 45.3027 76.0849 46.1741 75.9284 47.032ZM76.3947 43.6857L74.9377 43.5461C75.016 42.7121 75.0671 41.8644 75.0909 41.0236L76.5615 41.061C76.5275 41.9393 76.4764 42.821 76.3947 43.6857ZM76.5649 40.3121H75.0909V40.0704C75.0909 39.3113 75.0671 38.5419 75.0194 37.7862L76.4866 37.6977C76.5377 38.4841 76.5615 39.2807 76.5615 40.0806L76.5649 40.3121ZM74.9718 37.0781C74.9037 36.2407 74.805 35.3965 74.679 34.5693L76.136 34.3514C76.2654 35.2126 76.3675 36.0875 76.439 36.959L74.9718 37.0781ZM74.5667 33.8578C74.4237 33.034 74.2501 32.1999 74.0526 31.3897L75.4824 31.0493C75.6901 31.897 75.8671 32.7514 76.0169 33.6195L74.5667 33.8578Z" fill="#FFA415"/>
<path d="M3.22852 15.5058C3.31363 15.5671 3.24555 15.6999 3.13661 15.8463C2.61415 16.384 2.12421 16.9523 1.6694 17.5484C0.675382 18.9509 1.68983 20.9015 3.03108 21.8615C4.24978 22.7261 5.41401 22.6478 6.12549 21.6436C7.03781 20.35 6.92888 19.0802 6.23783 18.0386C5.49231 18.8556 4.53573 18.9339 3.63703 18.2871C3.46915 18.1763 3.3254 18.0328 3.21443 17.8651C3.10346 17.6974 3.02757 17.509 2.99131 17.3111C2.95506 17.1133 2.95919 16.9102 3.00347 16.7141C3.04774 16.5179 3.13125 16.3327 3.24895 16.1697C3.85149 15.322 4.82168 15.4412 5.65911 16.0335C5.8089 16.139 5.94847 16.2548 6.08123 16.3739C6.14591 16.088 6.08123 15.8633 6.23442 15.6488C6.26795 15.617 6.31243 15.5992 6.35867 15.5992C6.40492 15.5992 6.4494 15.617 6.48293 15.6488C6.91526 15.9552 7.01739 16.4999 6.82335 17.0888C8.32459 18.7058 8.62076 20.7347 7.2761 22.6342C5.79869 24.721 3.79362 24.6155 2.34684 23.5908C0.185181 22.0623 -0.825864 19.1858 0.808146 16.8777C1.71706 15.6318 2.81321 15.2131 3.22852 15.5058ZM5.47869 17.1671C5.31906 17.0266 5.15202 16.8948 4.97828 16.7722C4.76722 16.6224 4.35872 16.3773 4.1851 16.6258C4.09319 16.7552 4.21233 16.9356 4.40637 17.0752C4.56188 17.1879 4.7452 17.256 4.93656 17.2722C5.12792 17.2884 5.32007 17.252 5.49231 17.1671H5.47869Z" fill="#FFA415"/>
<path d="M11.7628 12.105C12.1663 12.5625 12.4345 13.1232 12.5373 13.7244C12.6401 14.3257 12.5735 14.9437 12.3449 15.5092L12.4437 15.4173C13.3832 14.5322 13.3526 13.0173 13.3049 12.5544C13.2709 12.2718 13.3049 12.0982 13.3764 12.0369C13.4479 11.9757 13.5909 12.0369 13.7679 12.2242C14.3432 12.8301 14.3636 14.0726 13.8802 15.0735C13.6155 15.5514 13.27 15.9799 12.859 16.3398C12.2905 16.8777 11.6335 17.1841 11.1909 16.7177C11.0902 16.5983 11.0107 16.4624 10.956 16.316C11.8683 15.4547 11.5177 14.2735 10.6496 13.3407C10.5312 13.2181 10.3695 13.1466 10.199 13.1415C10.0286 13.1364 9.8629 13.1981 9.73733 13.3135C9.43435 13.6029 9.3118 14.2292 9.49222 14.8999C9.61402 15.4392 9.827 15.9538 10.122 16.4215C11.1433 17.9704 12.5798 19.9006 12.6513 20.1661C12.6809 20.2512 12.6893 20.3422 12.6757 20.4312C12.662 20.5202 12.6268 20.6045 12.573 20.6768C12.4517 20.7547 12.316 20.8074 12.1739 20.832C12.0318 20.8566 11.8862 20.8524 11.7458 20.8197C11.5294 20.8033 11.3279 20.7032 11.1841 20.5406C9.51545 18.6246 8.21068 16.4199 7.33397 14.0352C7.29393 13.9464 7.28225 13.8475 7.30052 13.7518C7.3188 13.6562 7.36615 13.5685 7.4361 13.5007C7.70162 13.2556 8.32799 13.4224 8.6582 13.5927C8.64387 13.3081 8.69362 13.0239 8.8038 12.7611C8.91398 12.4983 9.08177 12.2636 9.29478 12.0744C10.2139 11.2063 11.1194 11.4208 11.7628 12.105Z" fill="#FFA415"/>
<path d="M17.407 9.34768C17.4989 9.283 17.6146 9.34768 17.7678 9.57916C18.1355 10.0932 18.4486 11.9281 16.3346 13.4327C15.5074 14.0216 14.3977 14.1612 13.6828 13.157C12.4266 11.4004 12.6615 9.29321 13.9551 8.3911C14.6359 7.8975 15.2861 7.99621 15.6572 8.51365C16.43 9.59959 15.3576 10.5868 14.704 11.734L14.8674 11.9655C15.2283 12.4693 15.8512 12.1936 16.1917 11.9655C17.3865 11.0736 17.1789 9.50427 17.407 9.34768ZM14.3126 11.0498C14.5849 10.3417 14.8981 9.86511 14.6291 9.49065C14.5304 9.35108 14.3738 9.32385 14.1798 9.46342C13.7951 9.71873 13.9721 10.3962 14.2955 11.043L14.3126 11.0498Z" fill="#FFA415"/>
<path d="M20.5763 9.10601C20.0248 8.05752 20.0861 7.42434 19.7763 6.83201C19.6673 6.62095 19.4869 6.52564 19.1363 6.70947C18.6052 6.98861 18.6052 8.36731 18.8708 9.26261L18.9082 9.33409C19.1908 9.87196 19.5891 10.1034 19.7286 10.3826C19.8682 10.6617 19.7831 10.9273 19.2486 11.54C19.1918 11.61 19.1226 11.6688 19.0444 11.7136C18.704 11.8872 18.4112 11.574 18.0912 10.9613C17.1959 9.2592 16.6751 8.23795 16.8351 6.655C16.8302 6.55994 16.8499 6.46523 16.8922 6.37998C16.9346 6.29473 16.9981 6.2218 17.0768 6.1682C17.3593 6.02182 17.8325 6.27033 18.1218 6.50862C18.1894 6.26941 18.3065 6.04703 18.4654 5.85587C18.6243 5.66471 18.8215 5.50902 19.0444 5.39885C19.9465 4.92227 20.658 5.1129 21.029 5.82097C21.5396 6.79457 21.6418 8.00646 21.846 8.39454C21.9039 8.50347 21.9652 8.54773 22.0469 8.50688C22.4349 8.30263 22.6903 6.62436 22.8809 6.52223C22.9796 6.47117 23.0851 6.56989 23.2043 6.80138C23.6639 7.66945 23.1396 9.39878 22.0503 9.97408C21.4205 10.2975 20.9269 9.77663 20.5763 9.10601Z" fill="#FFA415"/>
<path d="M28.6408 3.00569C28.8348 3.87716 28.4808 4.75204 28.7089 5.79031C28.7599 6.0218 28.9063 6.16478 29.2944 6.07967C29.8697 5.95372 30.0229 5.4465 30.0944 4.81672C30.0944 3.77164 30.2305 2.01847 30.2884 1.69167C30.298 1.59502 30.3381 1.50395 30.403 1.4317C30.4679 1.35945 30.5542 1.3098 30.6493 1.28998C31.0918 1.19126 31.6705 1.92997 31.742 2.19549C31.8714 2.78101 31.7726 4.71459 31.6467 6.30435C32.719 5.06182 33.0084 3.84993 33.2943 3.78865C33.4067 3.76482 33.4781 3.88737 33.536 4.12907C33.7232 4.98012 32.9028 6.72647 31.5173 7.75793C31.4254 9.01748 31.2995 10.0864 29.6995 10.4404C28.7497 10.6481 27.8 10.1851 27.6195 9.3545C27.4119 8.40473 28.7531 8.04049 30.3429 7.27455C30.3429 6.93413 30.3429 6.5937 30.3429 6.27711C30.2332 6.55396 30.0557 6.79881 29.8267 6.98916C29.5977 7.1795 29.3245 7.30924 29.0323 7.36645C28.0382 7.58432 27.2961 7.3188 27.0953 6.41329C27.0253 6.00924 27.0617 5.59393 27.2008 5.2082L26.9489 2.5189C27.1842 2.27832 27.4869 2.11455 27.817 2.04912C28.3344 1.94699 28.5114 2.4406 28.6408 3.00569ZM30.2408 8.48983C29.2195 8.92897 28.6068 9.01067 28.6646 9.2762C28.7361 9.59619 29.2263 9.66087 29.502 9.61662C29.8799 9.50428 30.1114 9.08557 30.2339 8.48303L30.2408 8.48983Z" fill="#FFA415"/>
<path d="M37.5972 1.49424C37.5972 1.59636 37.3827 1.68828 36.7291 1.72913C36.4317 1.73793 36.1393 1.80785 35.8701 1.93451C35.6009 2.06118 35.3606 2.24189 35.1642 2.46541C34.9679 2.68893 34.8196 2.95046 34.7286 3.23374C34.6377 3.51703 34.606 3.816 34.6356 4.11206C34.6332 4.27413 34.6662 4.43476 34.7323 4.58279C34.7983 4.73083 34.8957 4.86271 35.0179 4.96929C35.14 5.07586 35.2838 5.15456 35.4394 5.19994C35.5951 5.24531 35.7587 5.25627 35.9189 5.23204C36.2168 5.22012 36.505 5.12326 36.7496 4.95289C36.4842 4.79573 36.2628 4.57423 36.1057 4.30886C35.9487 4.0435 35.861 3.74283 35.8508 3.43463C35.8403 3.24159 35.8683 3.04837 35.9332 2.86626C35.9981 2.68415 36.0986 2.51677 36.2288 2.37388C36.359 2.23098 36.5164 2.11544 36.6917 2.03397C36.867 1.95249 37.0568 1.90673 37.25 1.89934C37.9819 1.85168 38.3768 2.3589 38.421 3.06017C38.4398 3.46478 38.376 3.86898 38.2338 4.24822H38.3019C39.1495 4.19376 39.2653 3.4959 39.5444 3.47888C39.6601 3.47888 39.7146 3.61505 39.7282 3.87717C39.746 4.0604 39.7249 4.24534 39.6661 4.4198C39.6073 4.59425 39.5122 4.75428 39.3871 4.88935C39.262 5.02441 39.1097 5.13146 38.9403 5.20343C38.7708 5.2754 38.5881 5.31068 38.404 5.30693C38.161 5.32339 37.9169 5.3154 37.6755 5.2831C37.4323 5.62143 37.1186 5.9029 36.7559 6.10803C36.3933 6.31316 35.9904 6.43706 35.5751 6.47116C33.873 6.57669 33.0594 5.54182 32.9879 4.40142C32.8824 2.69932 33.9683 1.04148 35.8747 0.922338C36.7087 0.881487 37.5768 1.16744 37.5972 1.49424ZM37.4917 3.99291C37.5977 3.73527 37.6465 3.45767 37.6346 3.17932C37.6346 2.98868 37.5427 2.81166 37.3623 2.82187C37.1819 2.83208 37.141 3.084 37.1513 3.26442C37.1641 3.54266 37.2865 3.80452 37.4917 3.99291Z" fill="#FFA415"/>
<path d="M41.5767 2.01503C41.495 2.90693 40.8959 3.73756 40.7971 4.79626C40.7733 5.03455 40.872 5.21156 41.2669 5.2456C42.1009 5.3205 42.6797 3.65586 42.8839 2.74354C42.8851 2.41488 42.9033 2.0865 42.9384 1.75972C42.9792 1.28994 43.3639 1.03803 44.1741 1.10952C44.5588 1.14356 44.5894 1.4193 44.5486 1.88227C44.4464 3.05331 43.8405 4.37413 43.7724 5.1605C43.7724 5.28646 43.7894 5.35454 43.8779 5.36475C44.3171 5.4022 45.4405 4.12904 45.6549 4.14606C45.7673 4.14606 45.8013 4.29584 45.7775 4.55456C45.6924 5.53496 44.3171 6.70941 43.0882 6.59707C42.5265 6.546 42.3597 6.10005 42.3529 5.53156C42.1787 5.8259 41.924 6.06433 41.6188 6.21873C41.3136 6.37313 40.9707 6.43708 40.6303 6.40304C39.6091 6.31112 38.9282 5.83113 39.0133 4.90859C39.0665 4.50209 39.2263 4.11689 39.4763 3.79202L40.0482 1.04825C40.3646 0.89225 40.7188 0.829664 41.0695 0.867825C41.6141 0.918888 41.6346 1.43973 41.5767 2.01503Z" fill="#FFA415"/>
<path d="M50.0157 3.81917C49.4846 4.90171 48.8651 5.81403 48.7731 6.20211C48.7425 6.32125 48.7731 6.39615 48.8514 6.41657C49.2804 6.51529 50.5706 5.41234 50.7782 5.46C50.8905 5.48723 50.9042 5.6302 50.8429 5.88211C50.6216 6.84209 49.3348 7.86335 48.1195 7.58421C47.4387 7.42421 47.2515 6.67529 47.4387 5.93658C47.6216 5.18261 47.9705 4.47899 48.46 3.87705C48.2154 3.88595 47.9706 3.86422 47.7315 3.81237C47.6398 3.78956 47.5499 3.75997 47.4625 3.72386C47.1988 4.19402 46.9789 4.68744 46.8055 5.19788C46.666 5.79361 46.5911 6.41316 46.5196 6.72295C46.4821 6.88635 46.0906 7.26081 45.3553 7.0872C44.9911 7.00209 44.9639 6.56636 45.1205 5.89573C45.4847 4.34342 45.7638 3.64216 46.4345 2.83196C46.21 2.55423 46.1015 2.20057 46.1315 1.84475C46.2336 1.41582 46.54 1.19795 47.0881 1.32391C47.7076 1.47029 47.8676 2.32134 47.8642 2.68558C47.9881 2.76228 48.1257 2.81431 48.2693 2.83878C48.797 2.96133 49.2906 2.63792 49.6106 2.71281C49.8591 2.79451 49.9782 3.37663 50.0157 3.81917Z" fill="#FFA415"/>
<path d="M57.236 9.73227C57.7943 8.68378 58.3525 8.37058 58.6657 7.78847C58.7781 7.58081 58.7576 7.37656 58.407 7.19273C57.8589 6.89997 56.5994 7.72719 56.0241 8.47952C55.8879 8.80291 55.7483 9.13993 55.6122 9.39865C55.5533 9.55139 55.4524 9.68429 55.321 9.78191C55.1896 9.87954 55.0333 9.93787 54.87 9.95013C54.6167 9.98944 54.3575 9.96246 54.1177 9.87183C53.8386 9.72545 53.808 9.24886 54.1348 8.63951C55.013 6.98167 56.0173 5.23533 59.0844 3.1009C59.1587 3.04141 59.248 3.00383 59.3424 2.9924C59.4369 2.98098 59.5326 2.99616 59.6189 3.03622C60.0274 3.25409 59.83 4.10854 59.7074 4.34002C59.3261 5.05831 58.6419 5.31023 57.876 5.83787L57.3415 6.47446C57.6469 6.27074 58.0016 6.1531 58.3682 6.13393C58.7348 6.11476 59.0999 6.19477 59.4249 6.36552C60.3236 6.84211 60.5687 7.53656 60.1908 8.24463C59.6768 9.21482 58.7338 9.98077 58.5262 10.3688C58.4683 10.4778 58.4649 10.5561 58.5466 10.5969C58.9347 10.8046 60.4665 10.0693 60.6572 10.168C60.7559 10.2225 60.7321 10.362 60.6095 10.5935C60.1465 11.4616 58.424 12.0063 57.3381 11.4275C56.7185 11.1007 56.8717 10.3995 57.236 9.73227Z" fill="#FFA415"/>
<path d="M64.5005 13.133C64.5924 13.1977 64.5482 13.3339 64.3984 13.5449C64.0273 14.059 62.3865 14.9373 60.2861 13.419C59.4623 12.8233 58.9755 11.8156 59.7006 10.8148C60.9669 9.06504 63.0401 8.6293 64.3133 9.54843C64.9941 10.0454 65.1132 10.6854 64.7422 11.1961C63.9592 12.2786 62.6793 11.5773 61.3857 11.322L61.2189 11.5535C60.8546 12.0573 61.3142 12.5748 61.6546 12.8028C62.8631 13.6777 64.2894 12.9799 64.5005 13.133ZM61.9065 10.7501C62.6656 10.7842 63.2137 10.9305 63.486 10.5527C63.5848 10.4165 63.5609 10.2599 63.3669 10.1203C62.9992 9.84459 62.4137 10.2259 61.9065 10.7365V10.7501Z" fill="#FFA415"/>
<path d="M68.9872 13.9093C69.0644 13.8645 69.1529 13.8426 69.2421 13.8462C69.3313 13.8498 69.4177 13.8788 69.491 13.9298C69.8314 14.2497 69.8314 15.1314 69.5829 15.4004C69.2714 15.5278 68.9519 15.6347 68.6264 15.7204C68.2364 16.0185 67.8741 16.3512 67.5438 16.7144C67.1796 17.0888 66.9481 17.4293 67.0707 17.5484C67.4111 17.8684 69.1336 17.5893 69.28 17.7322C69.3617 17.8105 69.3072 17.9943 69.1268 18.1816C68.4459 18.8897 66.5328 18.8352 65.6783 18.0114C65.3686 17.7118 65.4877 17.2318 65.8315 16.6974C65.4406 16.8141 65.0247 16.8189 64.6312 16.7112C64.2377 16.6034 63.8822 16.3876 63.6052 16.088C63.425 15.9329 63.2798 15.7413 63.179 15.526C63.0783 15.3106 63.0244 15.0763 63.0209 14.8386C63.0173 14.6009 63.0642 14.3651 63.1585 14.1468C63.2528 13.9285 63.3923 13.7327 63.5677 13.5723C64.1868 12.913 65.0113 12.4833 65.9064 12.3536C66.3456 12.2878 66.7937 12.3169 67.2207 12.4391C67.6476 12.5612 68.0434 12.7735 68.3813 13.0617C68.5399 13.2243 68.6834 13.4009 68.8102 13.5893C68.8859 13.6859 68.9456 13.7939 68.9872 13.9093ZM66.7711 15.6114C67.2832 15.0931 67.8415 14.6225 68.4391 14.2055C67.9134 13.8429 67.2763 13.6781 66.6407 13.7404C66.0051 13.8028 65.4121 14.0881 64.9669 14.5459C64.6605 14.8625 64.4596 15.2642 64.8273 15.6182C65.1949 15.9723 65.9064 16.105 66.7677 15.6046L66.7711 15.6114Z" fill="#FFA415"/>
<path d="M72.8475 20.3193C71.7514 20.8197 70.6927 21.1363 70.3727 21.3848C70.2706 21.4597 70.2399 21.5278 70.2944 21.5993C70.5633 21.9397 72.262 21.9124 72.3914 22.0827C72.4629 22.1712 72.3914 22.2903 72.1769 22.4469C71.3974 23.0494 69.7532 23.029 69.0008 22.052C68.5685 21.4869 68.9055 20.7959 69.508 20.3499C70.1278 19.8822 70.8443 19.5589 71.605 19.4036C71.4095 19.2572 71.2344 19.0855 71.0842 18.8929C71.0297 18.8214 70.9753 18.7329 70.9276 18.6546C70.428 18.8514 69.9471 19.0929 69.491 19.3763C69.0076 19.7474 68.5549 20.1797 68.3064 20.3737C68.1702 20.4793 67.6255 20.5201 67.1694 19.921C66.9447 19.6248 67.2 19.2708 67.7447 18.8487C69.0076 17.8785 69.668 17.5108 70.6927 17.3236C70.6958 16.9654 70.8359 16.6219 71.0842 16.3636C71.4246 16.0947 71.8093 16.1219 72.1565 16.5679C72.5412 17.0717 72.1293 17.8308 71.891 18.1134C71.9395 18.251 72.0121 18.379 72.1054 18.4912C72.4459 18.9202 73.0348 18.9882 73.2254 19.2401C73.3752 19.4274 73.0961 19.955 72.8475 20.3193Z" fill="#FFA415"/>
<path d="M74.8697 21.1193C75.8909 20.864 76.7215 20.8163 76.9326 21.1635C77.1845 21.5789 76.8781 21.9227 76.5309 22.2665L75.5947 22.2937C75.8569 22.7431 76.0271 23.0495 76.1564 23.2605C76.2177 23.3592 76.1837 23.3899 76.0679 23.4614C75.9522 23.5329 75.3258 23.7405 75.2373 23.5975C75.1488 23.4546 74.8662 22.8827 74.696 22.6001C73.9468 22.8997 73.2189 23.25 72.5174 23.6486C72.1123 23.8971 71.891 24.1218 71.9863 24.2784C72.1259 24.5099 73.1063 25.0375 73.6884 25.0988C73.9709 25.126 74.1343 25.1975 74.1786 25.2758C74.2229 25.3541 74.1446 25.4835 73.9233 25.6162C73.0825 26.1269 71.1489 25.4256 70.5191 24.3737C70.131 23.7337 70.8119 22.9644 71.8808 22.3312C72.5263 21.9517 73.2112 21.6435 73.9233 21.412L73.6578 20.9763C73.6135 20.898 73.6271 20.8367 73.685 20.8027C73.8082 20.708 73.9509 20.6418 74.1028 20.6089C74.2546 20.5759 74.4119 20.577 74.5633 20.6121C74.6177 20.738 74.7301 20.915 74.8697 21.1193Z" fill="#FFA415"/>
<path d="M21.4443 73.7786C21.019 74.2918 20.5306 74.7493 19.9907 75.1403C21.5703 75.1199 22.5916 74.5956 22.8026 74.7454C22.8945 74.8135 22.8537 74.9497 22.7039 75.1607C22.1899 75.8926 20.6205 76.3488 18.9116 75.9437C18.6563 76.1105 18.4418 76.2841 18.2546 76.4203C17.4206 77.0364 16.2632 77.1454 15.0547 76.2909C14.2581 75.7292 13.6487 74.6909 14.2581 73.8331C14.8062 73.0569 16.5389 74.0714 18.2478 74.7692C18.3841 74.6699 18.5148 74.5631 18.6393 74.4493C18.2388 74.4533 17.8484 74.3239 17.5295 74.0816C16.2359 73.1659 15.4598 71.8553 16.5798 70.2689C17.2746 69.3038 18.202 68.5298 19.2759 68.0188C19.2075 67.5529 19.2848 67.0773 19.4971 66.6571C19.5141 66.6292 19.5365 66.6051 19.5631 66.5863C19.5897 66.5674 19.6199 66.5542 19.6519 66.5475C19.6838 66.5408 19.7167 66.5408 19.7487 66.5473C19.7806 66.5538 19.8109 66.5669 19.8376 66.5856C20.0486 66.7354 20.035 67.2664 20.178 67.6885C20.7635 67.485 21.3882 67.4199 22.0031 67.4985C22.6179 67.577 23.2062 67.7971 23.7217 68.1413C24.709 68.8221 25.0834 69.6255 24.4434 70.5481C23.8034 71.4706 22.5133 71.6919 21.1856 70.7523C20.6913 70.3885 20.2688 69.936 19.9397 69.4179C19.3055 69.8238 18.7516 70.3431 18.3057 70.9498C17.6725 71.8451 17.7133 72.6518 18.6461 73.3123C18.7833 73.4126 18.9393 73.4842 19.1049 73.5228C19.2704 73.5614 19.442 73.5662 19.6095 73.5369C20.0895 73.0331 20.8997 72.0255 21.3967 72.3795C21.7507 72.6212 21.6009 73.5574 21.4443 73.7786ZM17.3117 75.399C15.7049 74.7897 15.2317 74.439 15.0547 74.6909C14.8777 74.9429 15.2487 75.3718 15.5449 75.5624C16.0079 75.8858 16.6649 75.7429 17.3117 75.399ZM20.6614 68.9889C20.9433 69.4193 21.3078 69.7896 21.7337 70.0783C22.326 70.4936 22.9728 70.3983 23.2928 69.9455C23.5005 69.6527 23.3813 69.2647 22.983 68.9958C22.3294 68.5294 21.492 68.6281 20.6614 68.9889Z" fill="#FFA415"/>
<path d="M22.9115 75.1064C23.4971 73.8945 24.8655 72.1209 25.6077 72.4784C26.0366 72.6826 25.8528 73.4996 25.7404 73.7447C25.2775 74.6536 24.2494 75.5864 23.9873 76.1277C23.9635 76.1723 23.9499 76.2216 23.9476 76.2721C23.9452 76.3226 23.9542 76.373 23.9737 76.4196C23.9933 76.4662 24.023 76.5079 24.0606 76.5416C24.0983 76.5753 24.143 76.6002 24.1915 76.6145C24.5864 76.8051 26.0877 76.0085 26.2817 76.1038C26.3838 76.1515 26.3634 76.2945 26.2511 76.5294C25.8255 77.4144 24.1268 78.0272 23.0171 77.4927C22.2205 77.1217 22.4145 76.1481 22.9115 75.1064ZM26.4757 70.681C26.6562 70.3031 27.3778 69.5337 27.8374 69.7516C28.297 69.9695 28.1778 70.9567 28.0621 71.212C27.9889 71.3708 27.8838 71.5128 27.7532 71.6291C27.6227 71.7454 27.4695 71.8334 27.3033 71.8878C27.1371 71.9421 26.9615 71.9615 26.7875 71.9448C26.6134 71.9281 26.4447 71.8756 26.2919 71.7907C26.2528 71.4088 26.3162 71.0234 26.4757 70.6741V70.681Z" fill="#FFA415"/>
<path d="M26.7242 74.691C26.9829 73.8842 27.2485 73.4247 28.2493 73.7447C28.3243 73.764 28.3943 73.7992 28.4545 73.8481C28.5146 73.8969 28.5635 73.9582 28.5978 74.0277C28.6321 74.0972 28.6509 74.1733 28.653 74.2508C28.6552 74.3283 28.6405 74.4053 28.6101 74.4765C28.4113 75 28.1556 75.5 27.8476 75.9676C27.6059 76.9003 27.2621 77.7139 27.7591 77.8739C28.0382 77.9625 28.5863 77.5097 29.1616 76.9344C29.1952 76.5328 29.2752 76.1364 29.3999 75.7531C29.6042 75.1165 30.0807 74.4493 31.0033 74.7319C31.3709 74.851 31.7692 75.1676 31.5343 75.8995C31.3982 76.3182 31.0748 76.6655 30.142 77.4246C30.142 77.7956 30.2612 78.1054 30.5403 78.1803C31.3471 78.439 31.7079 77.8399 31.9769 77.9182C32.0858 77.9522 32.0824 78.1054 32.0041 78.3539C31.7318 79.205 30.9829 79.4024 30.2578 79.1709C30.0137 79.096 29.7932 78.9591 29.6178 78.7735C29.4424 78.588 29.318 78.3601 29.2569 78.1122C28.3242 78.7658 27.2893 79.2867 26.6221 79.0756C25.8664 78.8475 26.5302 75.2936 26.7242 74.691Z" fill="#FFA415"/>
<path d="M37.1308 78.6093C37.2432 78.6093 37.267 78.7659 37.2261 79.0246C37.1342 79.651 36.0789 81.1829 33.519 80.7948C32.4977 80.645 31.6195 79.971 31.8169 78.7523C32.1369 76.6179 33.7811 75.2766 35.3334 75.5115C36.1743 75.6375 36.5657 76.1549 36.4704 76.7813C36.2696 78.0987 34.8126 78.0612 33.5462 78.4323L33.502 78.7114C33.4101 79.3242 34.05 79.5591 34.4619 79.6204C35.9258 79.8382 36.8721 78.5617 37.1308 78.6093ZM33.7266 77.6732C34.4075 77.3532 34.9692 77.2306 35.0407 76.771C35.0645 76.6042 34.9692 76.4749 34.7343 76.4306C34.2883 76.366 33.9445 76.9787 33.7266 77.6664V77.6732Z" fill="#FFA415"/>
<path d="M42.0839 78.8884C41.7435 76.1412 42.6899 72.5566 45.0013 72.2706C45.1358 72.2396 45.2755 72.2384 45.4105 72.2672C45.5456 72.2959 45.6727 72.3538 45.783 72.4368C45.8932 72.5198 45.984 72.626 46.0489 72.7478C46.1138 72.8697 46.1513 73.0042 46.1587 73.1421C46.3289 74.5242 44.763 75.9607 43.5886 77.9624L43.643 78.4118C43.7452 79.2424 44.1979 79.5726 44.7562 79.5045C45.5528 79.4058 45.9953 78.8237 46.3255 78.2722C46.4651 78.0271 46.5979 77.9079 46.6898 77.8977C46.7817 77.8875 46.8634 78.0135 46.894 78.2722C47.0166 79.2458 45.9715 80.6755 44.7494 80.8253C43.5273 80.9751 42.2814 80.4951 42.0839 78.8884ZM43.5579 76.5429C44.3783 74.868 45.0762 74.3369 44.9877 73.6425C44.9673 73.4723 44.9026 73.4008 44.7664 73.4178C44.3 73.4791 43.6532 74.6365 43.5579 76.5429Z" fill="#FFA415"/>
<path d="M50.5229 74.5242C50.5535 74.6195 50.3561 74.759 49.7263 74.9429C49.4369 75.017 49.1659 75.1502 48.9304 75.334C48.6949 75.5179 48.4999 75.7484 48.3577 76.0111C48.2154 76.2738 48.129 76.5631 48.1039 76.8608C48.0787 77.1585 48.1153 77.4582 48.2115 77.7411C48.245 77.8997 48.3125 78.0491 48.4094 78.179C48.5063 78.3089 48.6302 78.4162 48.7726 78.4936C48.915 78.5709 49.0725 78.6165 49.2342 78.627C49.396 78.6376 49.558 78.6129 49.7093 78.5547C49.9968 78.4761 50.2564 78.318 50.4582 78.0986C50.1651 78.0036 49.9007 77.8362 49.6894 77.6118C49.4782 77.3875 49.3269 77.1135 49.2497 76.8152C49.1966 76.6294 49.1809 76.435 49.2036 76.2431C49.2263 76.0512 49.2869 75.8658 49.3819 75.6976C49.477 75.5294 49.6045 75.3817 49.7571 75.2633C49.9098 75.1448 50.0844 75.0579 50.271 75.0076C50.9757 74.8033 51.4727 75.2118 51.6667 75.8858C51.774 76.2757 51.8018 76.6833 51.7484 77.0841H51.8131C52.6267 76.8458 52.5858 76.1412 52.8582 76.0629C52.9671 76.0322 53.0488 76.1616 53.1237 76.4033C53.1835 76.5793 53.2051 76.766 53.1869 76.9511C53.1688 77.1361 53.1115 77.3151 53.0187 77.4762C52.9259 77.6373 52.7998 77.7767 52.6489 77.8852C52.4979 77.9937 52.3256 78.0688 52.1433 78.1054C51.9103 78.1751 51.6707 78.2207 51.4284 78.2415C51.265 78.6248 51.0202 78.9679 50.7111 79.2471C50.4019 79.5263 50.0357 79.7349 49.6378 79.8585C47.9902 80.3419 46.9791 79.5181 46.6591 78.4083C46.1826 76.7675 46.877 74.9156 48.7017 74.3812C49.5221 74.1293 50.4276 74.2178 50.5229 74.5242ZM50.9723 76.9854C51.0175 76.7099 51.0036 76.4279 50.9314 76.1582C50.8769 75.9743 50.7612 75.8178 50.591 75.8722C50.4208 75.9267 50.431 76.1752 50.482 76.3488C50.5165 76.4838 50.5776 76.6107 50.6618 76.7217C50.746 76.8328 50.8515 76.9259 50.9723 76.9956V76.9854Z" fill="#FFA415"/>
<path d="M52.2454 74.5786C51.8641 73.8229 51.7314 73.3054 52.6709 72.8323C52.7383 72.7943 52.813 72.7711 52.89 72.7644C52.9671 72.7577 53.0447 72.7676 53.1176 72.7934C53.1905 72.8192 53.257 72.8603 53.3127 72.914C53.3683 72.9677 53.4118 73.0327 53.4403 73.1046C53.6664 73.6164 53.8342 74.1519 53.9407 74.7012C54.4241 75.5352 54.7475 76.359 55.2139 76.1275C55.476 75.9948 55.5543 75.2867 55.5543 74.4731C55.2953 74.1594 55.0736 73.8167 54.8939 73.4518C54.5943 72.8561 54.4684 72.0459 55.3364 71.6101C55.6768 71.4365 56.1875 71.3855 56.5313 72.0731C56.7287 72.4646 56.7389 72.9412 56.6062 74.136C56.8751 74.3948 57.1577 74.5275 57.4198 74.3982C58.1789 74.0169 58.0121 73.3293 58.264 73.2033C58.3661 73.1522 58.4717 73.2612 58.6044 73.4927C59.0061 74.2926 58.6044 74.9599 57.9236 75.3003C57.6966 75.4169 57.4435 75.4734 57.1885 75.4645C56.9334 75.4555 56.6849 75.3814 56.4666 75.2492C56.2555 76.3658 55.8845 77.4653 55.2581 77.7785C54.5432 78.1462 52.528 75.1471 52.2454 74.5786Z" fill="#FFA415"/>
<path d="M62.4137 70.0987C62.5022 70.0306 62.6214 70.0987 62.7712 70.3268C63.1422 70.8408 63.452 72.6723 61.3618 74.1872C60.538 74.7829 59.4282 74.9293 58.7066 73.9284C57.4436 72.1787 57.6853 70.0681 58.9517 69.1626C59.6325 68.6656 60.2827 68.7609 60.6538 69.2749C61.4367 70.3574 60.3678 71.3515 59.721 72.5021L59.8844 72.7302C60.2487 73.2374 60.8716 72.9548 61.2086 72.7097C62.4171 71.8178 62.2027 70.2417 62.4137 70.0987ZM59.3261 71.8008C59.5916 71.0893 59.9048 70.6127 59.6325 70.2383C59.5338 70.0987 59.3772 70.0749 59.1831 70.2145C58.8189 70.4834 58.9993 71.1608 59.3261 71.8008Z" fill="#FFA415"/>
</svg>