<svg xmlns:xlink="http://www.w3.org/1999/xlink" xmlns="http://www.w3.org/2000/svg" width="14" height="15" viewBox="0 0 14 15" fill="none"><script xmlns="" src="chrome-extension://hoklmmgfnpapgjgcpechhaamimifchmp/frame_ant/frame_ant.js"/>
<path d="M6.9233 8.6543C5.50254 8.65336 4.10813 8.97682 2.88882 9.59016C2.16332 9.95511 1.51601 10.4145 0.969329 10.9487C0.321139 11.582 0.414143 12.622 1.14236 13.1614C1.72222 13.5909 2.36894 13.9554 3.06671 14.244C4.26677 14.7403 5.586 14.9989 6.9233 15.0002C8.26102 15.0009 9.58105 14.7431 10.7815 14.2467C11.4804 13.9576 12.1279 13.5921 12.708 13.1613C13.4344 12.6217 13.5263 11.5833 12.8793 10.9507C12.3322 10.4157 11.6842 9.95557 10.9578 9.59016C9.73848 8.97682 8.34407 8.65336 6.9233 8.6543Z" fill="#FFA415"/>
<path d="M6.92332 6.9233C8.83514 6.9233 10.385 5.37347 10.385 3.46165C10.385 1.54983 8.83514 0 6.92332 0C5.0115 0 3.46167 1.54983 3.46167 3.46165C3.46167 5.37347 5.0115 6.9233 6.92332 6.9233Z" fill="#FFA415"/>
</svg>