<svg xmlns:xlink="http://www.w3.org/1999/xlink" xmlns="http://www.w3.org/2000/svg" width="62" height="35" viewBox="0 0 62 35" fill="none"><script xmlns="" src="chrome-extension://hoklmmgfnpapgjgcpechhaamimifchmp/frame_ant/frame_ant.js"/>
<path d="M34.5931 31.7573C32.8631 32.8673 31.7131 33.4773 31.7131 33.4773C31.7131 33.4773 12.7131 23.2973 12.7131 11.2973C12.7053 9.99934 12.9559 8.71283 13.4503 7.51274C13.9448 6.31265 14.6732 5.22299 15.5931 4.30728C16.5126 3.38979 17.6044 2.66305 18.8057 2.16881C20.007 1.67456 21.2941 1.42256 22.5931 1.42728C24.5232 1.36897 26.4262 1.8929 28.0546 2.93089C29.6829 3.96889 30.9612 5.4729 31.7231 7.24728C32.4867 5.4721 33.7668 3.96775 35.3968 2.9298C37.0269 1.89184 38.9315 1.36831 40.8631 1.42728C42.1621 1.42201 43.4494 1.67376 44.6508 2.16804C45.8521 2.66231 46.9438 3.38934 47.8631 4.30728C48.7787 5.21624 49.5055 6.29741 50.0015 7.4885C50.4975 8.67959 50.753 9.95704 50.7531 11.2473C50.6997 13.6387 50.0427 15.9778 48.8431 18.0473" stroke="#FFA415" stroke-width="1.5" stroke-linecap="round" stroke-linejoin="round"/>
<path d="M40.3033 34.5772C40.3033 34.5772 30.1133 29.3972 30.1133 23.2772C30.1197 22.6161 30.2604 21.9632 30.5269 21.3581C30.7933 20.753 31.1799 20.2084 31.6633 19.7572C32.6766 18.8079 34.0147 18.2819 35.4033 18.2872C36.4247 18.2492 37.4346 18.5136 38.3063 19.0473C39.178 19.581 39.8727 20.3602 40.3033 21.2872C40.7356 20.3594 41.4321 19.5799 42.3055 19.0462C43.179 18.5126 44.1905 18.2485 45.2133 18.2872C46.6019 18.2819 47.9399 18.8079 48.9533 19.7572C49.4391 20.2107 49.8271 20.7585 50.0936 21.3673C50.3602 21.976 50.4996 22.6327 50.5033 23.2972C50.5033 29.3972 40.3033 34.5772 40.3033 34.5772Z" fill="#FFA415"/>
<path d="M53.6738 3.91726L57.7738 1.75726M53.8938 12.0873H60.3138M53.8138 19.9673L57.7038 21.8973" stroke="#FFA415" stroke-width="1.5" stroke-linecap="round"/>
<path d="M8.3336 3.91726L4.23359 1.75726M8.10359 12.0873H1.68359M8.19359 19.9673L4.29359 21.8973" stroke="#FFA415" stroke-width="1.5" stroke-linecap="round"/>
</svg>