<svg xmlns:xlink="http://www.w3.org/1999/xlink" xmlns="http://www.w3.org/2000/svg" width="35" height="35" viewBox="0 0 35 35" fill="none"><script xmlns="" src="chrome-extension://hoklmmgfnpapgjgcpechhaamimifchmp/frame_ant/frame_ant.js"/>
<path d="M17.5 0C14.0388 0 10.6554 1.02636 7.77753 2.94928C4.89967 4.87221 2.65665 7.60533 1.33212 10.803C0.00758248 14.0007 -0.338976 17.5194 0.336265 20.9141C1.01151 24.3087 2.67822 27.4269 5.12564 29.8744C7.57306 32.3218 10.6913 33.9885 14.0859 34.6637C17.4806 35.339 20.9993 34.9924 24.197 33.6679C27.3947 32.3433 30.1278 30.1003 32.0507 27.2225C33.9736 24.3446 35 20.9612 35 17.5C34.9951 12.8602 33.1498 8.41187 29.869 5.13104C26.5881 1.85022 22.1398 0.00489969 17.5 0ZM17.5 28.2692C17.1006 28.2692 16.7102 28.1508 16.3782 27.9289C16.0461 27.707 15.7873 27.3917 15.6345 27.0227C15.4816 26.6538 15.4417 26.2478 15.5196 25.8561C15.5975 25.4644 15.7898 25.1046 16.0722 24.8222C16.3546 24.5398 16.7144 24.3475 17.1061 24.2696C17.4978 24.1916 17.9038 24.2316 18.2727 24.3845C18.6417 24.5373 18.9571 24.7961 19.1789 25.1282C19.4008 25.4602 19.5192 25.8506 19.5192 26.25C19.5192 26.7855 19.3065 27.2991 18.9278 27.6778C18.5491 28.0565 18.0355 28.2692 17.5 28.2692ZM18.8462 20.0711V20.1923C18.8462 20.5493 18.7043 20.8917 18.4519 21.1442C18.1994 21.3966 17.857 21.5385 17.5 21.5385C17.143 21.5385 16.8006 21.3966 16.5481 21.1442C16.2957 20.8917 16.1539 20.5493 16.1539 20.1923V18.8461C16.1539 18.4891 16.2957 18.1467 16.5481 17.8943C16.8006 17.6418 17.143 17.5 17.5 17.5C19.7262 17.5 21.5385 15.9856 21.5385 14.1346C21.5385 12.2837 19.7262 10.7692 17.5 10.7692C15.2738 10.7692 13.4615 12.2837 13.4615 14.1346V14.8077C13.4615 15.1647 13.3197 15.5071 13.0673 15.7596C12.8148 16.012 12.4724 16.1538 12.1154 16.1538C11.7584 16.1538 11.416 16.012 11.1635 15.7596C10.9111 15.5071 10.7692 15.1647 10.7692 14.8077V14.1346C10.7692 10.7945 13.788 8.07692 17.5 8.07692C21.212 8.07692 24.2308 10.7945 24.2308 14.1346C24.2308 17.0591 21.9154 19.5074 18.8462 20.0711Z" fill="#FFA415"/>
</svg>