<svg xmlns:xlink="http://www.w3.org/1999/xlink" xmlns="http://www.w3.org/2000/svg" width="75" height="141" viewBox="0 0 75 141" fill="none">
<path d="M43.0114 140.633C42.6155 140.674 42.2164 140.674 41.8205 140.633C41.0811 140.577 40.3804 140.281 39.8264 139.788C39.2045 139.135 38.8404 138.279 38.8016 137.378C38.7324 136.908 38.6632 136.437 38.6078 135.994C38.4693 135.094 38.3447 134.207 38.2339 133.349C38.0123 131.604 37.7907 129.928 37.583 128.336C37.2091 125.151 36.9183 122.298 36.7245 119.889C36.3506 115.083 36.3921 112.106 36.9322 112.037C37.4722 111.968 38.4277 114.806 39.5356 119.515C40.0895 121.869 40.685 124.694 41.2943 127.823C41.5712 129.402 41.8897 131.064 42.1944 132.795C42.3513 133.635 42.5036 134.493 42.6513 135.37C42.9504 134.892 43.274 134.43 43.6207 133.986C44.9086 132.061 47.2904 129.07 50.7662 123.946C55.7432 116.675 59.9217 108.89 63.2293 100.723C65.6025 94.7559 67.3384 88.5545 68.4083 82.2224C68.9891 78.7318 69.3407 75.2069 69.4608 71.6704C69.546 67.9713 69.3887 64.2706 68.99 60.5921C68.5362 56.8513 67.8096 53.1487 66.8158 49.5138C65.796 45.8327 64.4712 42.2429 62.8553 38.7817C59.6707 31.9169 55.2807 25.679 49.8938 20.3641C47.3053 17.8471 44.5276 15.5324 41.5851 13.4402C38.7878 11.492 35.8484 9.75615 32.7917 8.24722C27.5745 5.60449 22.0348 3.65393 16.3128 2.44498C12.3992 1.67393 8.43112 1.21092 4.44515 1.0602C2.96051 1.17322 1.46763 1.10347 0 0.852478C1.42829 0.391556 2.91686 0.144241 4.41747 0.118546C8.51342 -0.141022 12.6252 0.0260315 16.6866 0.61705C22.7152 1.53146 28.5874 3.27916 34.1349 5.81C37.4002 7.27443 40.5483 8.98738 43.5514 10.9337C46.736 13.0328 49.7462 15.3854 52.5525 17.9684C58.4185 23.4374 63.2421 29.9266 66.7881 37.12C68.5784 40.7418 70.0608 44.5078 71.2195 48.3783C72.3506 52.2048 73.1886 56.112 73.7259 60.0659C74.7326 67.6285 74.6347 75.2973 73.4351 82.8317C72.3618 89.4703 70.5647 95.9714 68.076 102.219C64.6641 110.747 60.1731 118.803 54.7128 126.189C52.2065 129.637 49.428 132.879 46.4041 135.883L46.0579 136.201C52.5532 135.415 59.1005 135.142 65.6388 135.384C71.3856 135.592 74.903 136.229 74.8891 136.769C74.8891 137.877 60.8197 138.015 43.8976 140.536L43.0114 140.633Z" fill="#FFA415"/>
</svg>