<svg xmlns:xlink="http://www.w3.org/1999/xlink" xmlns="http://www.w3.org/2000/svg" width="16" height="16" viewBox="0 0 16 16" fill="none">
<path d="M9.35006 1.54461C9.37042 1.46846 9.40559 1.39707 9.45356 1.33452C9.50153 1.27198 9.56135 1.21949 9.62961 1.18007C9.69786 1.14065 9.77322 1.11506 9.85137 1.10477C9.92952 1.09448 10.0089 1.09969 10.0851 1.1201C11.1974 1.41032 12.2122 1.9918 13.0251 2.80465C13.8379 3.6175 14.4194 4.63234 14.7096 5.74465C14.73 5.82078 14.7352 5.9002 14.7249 5.97834C14.7147 6.05649 14.6891 6.13185 14.6496 6.20011C14.6102 6.26836 14.5577 6.32819 14.4952 6.37615C14.4326 6.42412 14.3613 6.45929 14.2851 6.47966C14.2344 6.49297 14.1823 6.49977 14.1299 6.49991C13.9977 6.49995 13.8693 6.45638 13.7645 6.37596C13.6596 6.29554 13.5843 6.18277 13.5501 6.05515C13.3135 5.147 12.839 4.31837 12.1755 3.65471C11.5119 2.99105 10.6834 2.51637 9.77531 2.27962C9.6991 2.25933 9.62763 2.22422 9.565 2.17628C9.50236 2.12835 9.4498 2.06854 9.4103 2.00028C9.3708 1.93201 9.34515 1.85663 9.33482 1.77844C9.32448 1.70025 9.32966 1.62079 9.35006 1.54461ZM9.1753 4.67964C10.2096 4.95564 10.8741 5.6209 11.1501 6.65516C11.1843 6.78278 11.2596 6.89555 11.3644 6.97597C11.4693 7.05638 11.5977 7.09995 11.7298 7.09991C11.7822 7.09978 11.8344 7.09297 11.8851 7.07966C11.9612 7.0593 12.0326 7.02412 12.0952 6.97616C12.1577 6.92819 12.2102 6.86837 12.2496 6.80011C12.289 6.73186 12.3146 6.6565 12.3249 6.57835C12.3352 6.5002 12.33 6.42079 12.3096 6.34466C11.9256 4.90764 10.9221 3.90413 9.48506 3.52013C9.3313 3.47905 9.16752 3.50074 9.02975 3.58042C8.89198 3.6601 8.7915 3.79125 8.75042 3.94501C8.70935 4.09877 8.73104 4.26255 8.81072 4.40032C8.8904 4.53809 9.02154 4.63856 9.1753 4.67964ZM14.6076 10.5844L11.0743 9.00118L11.0646 8.99668C10.8811 8.91823 10.6811 8.88674 10.4824 8.90508C10.2837 8.92341 10.0928 8.99098 9.92681 9.10168C9.90727 9.11459 9.88849 9.12861 9.87056 9.14368L8.04504 10.6999C6.88853 10.1382 5.69452 8.95318 5.13277 7.81167L6.69128 5.9584C6.70628 5.93965 6.72053 5.9209 6.73403 5.90065C6.84235 5.73513 6.90807 5.54539 6.92535 5.34832C6.94262 5.15126 6.91091 4.95298 6.83303 4.77114V4.76214L5.24527 1.22286C5.14232 0.985302 4.96531 0.787412 4.74065 0.658729C4.516 0.530045 4.25575 0.477469 3.99875 0.508848C2.98247 0.64258 2.04962 1.14168 1.37443 1.91293C0.699238 2.68419 0.327881 3.67485 0.329719 4.69989C0.329719 10.6549 5.17477 15.5 11.1298 15.5C12.1549 15.5018 13.1455 15.1305 13.9168 14.4553C14.688 13.7801 15.1871 12.8472 15.3209 11.831C15.3523 11.5741 15.2998 11.3139 15.1713 11.0892C15.0427 10.8646 14.845 10.6875 14.6076 10.5844Z" fill="#FFA415"/>
</svg>