<svg xmlns:xlink="http://www.w3.org/1999/xlink" xmlns="http://www.w3.org/2000/svg" width="42" height="37" viewBox="0 0 42 37" fill="none"><script xmlns="" src="chrome-extension://hoklmmgfnpapgjgcpechhaamimifchmp/frame_ant/frame_ant.js"/>
<path d="M8.13996 35.9999H2.42799C2.04927 35.9999 1.68605 35.8495 1.41825 35.5817C1.15045 35.3139 1 34.9507 1 34.5719V27.432C1 27.0532 1.15045 26.69 1.41825 26.4222C1.68605 26.1544 2.04927 26.004 2.42799 26.004H8.13996M8.13996 35.9999L20.9919 35.9999L32.4158 33.1439L39.3452 30.188C39.8377 29.9421 40.2519 29.5638 40.5414 29.0956C40.8308 28.6274 40.984 28.0878 40.9838 27.5373C40.9833 27.0814 40.8776 26.6317 40.675 26.2233C40.4724 25.8149 40.1784 25.4587 39.8158 25.1824C39.4531 24.9061 39.0317 24.7171 38.5841 24.6302C38.1366 24.5433 37.675 24.5608 37.2353 24.6813L25.2759 27.432H19.5639H24.5619C25.5087 27.432 26.4167 27.0558 27.0862 26.3863C27.7557 25.7168 28.1319 24.8088 28.1319 23.862C28.1319 22.9152 27.7557 22.0071 27.0862 21.3376C26.4167 20.6681 25.5087 20.292 24.5619 20.292H15.6369C15.0738 20.2906 14.516 20.4003 13.9953 20.6147C13.4746 20.8291 13.0013 21.144 12.6024 21.5415L8.13996 26.004M8.13996 35.9999V26.004" stroke="#FFA415" stroke-width="1.5" stroke-linecap="round" stroke-linejoin="round"/>
<path d="M25.445 9.81083H27.418M27.418 9.81083H29.391M27.418 9.81083V7.83784M27.418 9.81083V11.7838M27.418 18.6217C27.418 18.6217 17.0051 13.0148 17.0051 6.40666C17.0051 4.97273 17.5748 3.59752 18.5887 2.58357C19.6026 1.56963 20.9779 1 22.4118 1C24.6736 1 26.611 2.23252 27.418 4.20395C28.225 2.23252 30.1623 1 32.4241 1C33.8581 1 35.2333 1.56963 36.2472 2.58357C37.2612 3.59752 37.8308 4.97273 37.8308 6.40666C37.8308 13.0148 27.418 18.6217 27.418 18.6217Z" stroke="#FFA415" stroke-width="1.5" stroke-linecap="round" stroke-linejoin="round"/>
</svg>