<svg xmlns:xlink="http://www.w3.org/1999/xlink" xmlns="http://www.w3.org/2000/svg" width="70" height="64" viewBox="0 0 70 64" fill="none"><script xmlns="" src="chrome-extension://hoklmmgfnpapgjgcpechhaamimifchmp/frame_ant/frame_ant.js"/>
<path d="M48.5932 42.339C48.5932 42.339 54.8708 36.6392 56.3047 35.3617C59.0384 32.9209 55.8465 30.3135 53.9387 30.7538C51.2732 31.3685 48.1629 33.3925 44.8861 35.2243C44.8861 35.2243 32.6393 38.8196 28.474 45.247C22.516 54.4427 35.0679 62 35.0679 62C40.4324 56.8969 45.2057 53.3564 50.7904 50.787C54.8664 48.9116 59.1434 47.0251 60.5304 46.6965C63.4205 46.0103 65.1584 40.125 65.9542 36.3027C66.6963 32.742 68.775 24.9937 65.7139 24.9937C62.9277 24.9937 61.8436 27.8581 61.4223 30.0877C61.0022 32.3902 60.3653 34.6478 59.5201 36.8303L59.3513 37.2572L51.6286 39.5863" stroke="#FFA415" stroke-width="2.5" stroke-linecap="round" stroke-linejoin="round"/>
<path d="M28.4762 45.2448C32.6415 38.8174 44.8883 35.2221 44.8883 35.2221C48.1629 33.3903 51.2721 31.3663 53.9409 30.7516C55.8498 30.3113 59.0417 32.9187 56.308 35.3595C54.8752 36.6392 51.6308 39.5863 51.6308 39.5863L59.3535 37.2572L59.52 36.8292C60.3683 34.6481 61.0082 32.3917 61.4311 30.09C61.8525 27.8604 62.9366 24.9948 65.7228 24.9948C66.5576 24.9948 67.008 25.5737 67.2092 26.4835C68.376 22.4467 68.1446 19.8549 68.1446 19.8549C68.1547 19.6314 68.1625 19.4001 68.1625 19.171C68.1625 9.97303 60.4052 2 50.8396 2C43.8433 2 37.8194 6.50509 35.0813 12.2429C32.3453 6.50509 26.3214 2 19.323 2C9.75286 2 2 9.97303 2 19.171C2 19.4001 2.00894 19.6281 2.019 19.8549C2.019 19.8549 1.03997 30.7807 13.1951 42.7112C17.7449 47.2688 22.7395 51.6431 30.0364 57.6581C27.3854 54.5835 25.2999 50.1477 28.4762 45.2448Z" stroke="#FFA415" stroke-width="2.5" stroke-linecap="round" stroke-linejoin="round"/>
</svg>