<svg xmlns:xlink="http://www.w3.org/1999/xlink" xmlns="http://www.w3.org/2000/svg" width="32" height="32" viewBox="0 0 32 32" fill="none">
<path d="M19.3338 9.33321C20.2171 9.33585 21.0636 9.68791 21.6882 10.3125C22.3129 10.9371 22.6649 11.7835 22.6676 12.6668V19.3332C22.6649 20.2165 22.3129 21.0629 21.6882 21.6875C21.0636 22.3121 20.2171 22.6641 19.3338 22.6668H12.6669C11.7835 22.6641 10.9371 22.3121 10.3124 21.6875C9.68779 21.0629 9.3357 20.2165 9.33306 19.3332V12.6668C9.3357 11.7835 9.68779 10.9371 10.3124 10.3125C10.9371 9.68791 11.7835 9.33585 12.6669 9.33321H19.3338ZM19.3338 8H12.6669C10.0999 8 7.99976 10.1 7.99976 12.6668V19.3332C7.99976 21.9 10.0999 24 12.6669 24H19.3338C21.9007 24 24.0009 21.9 24.0009 19.3332V12.6668C24.0009 10.1 21.9007 8 19.3338 8Z" fill="#FFA415"/>
<path d="M20.3339 12.6671C20.1361 12.6671 19.9427 12.6084 19.7783 12.4986C19.6138 12.3887 19.4856 12.2325 19.4099 12.0498C19.3342 11.867 19.3144 11.666 19.353 11.472C19.3916 11.278 19.4869 11.0998 19.6267 10.96C19.7666 10.8201 19.9448 10.7249 20.1388 10.6863C20.3328 10.6477 20.5338 10.6675 20.7166 10.7432C20.8993 10.8189 21.0555 10.9471 21.1654 11.1115C21.2753 11.276 21.3339 11.4693 21.3339 11.6671C21.3342 11.7985 21.3086 11.9287 21.2584 12.0501C21.2082 12.1716 21.1346 12.2819 21.0417 12.3748C20.9487 12.4677 20.8384 12.5414 20.7169 12.5915C20.5955 12.6417 20.4653 12.6674 20.3339 12.6671ZM16.0004 13.3335C16.5278 13.3335 17.0435 13.4899 17.482 13.783C17.9206 14.076 18.2625 14.4925 18.4643 14.9798C18.6662 15.4671 18.719 16.0033 18.6161 16.5206C18.5132 17.0379 18.2592 17.513 17.8862 17.886C17.5132 18.259 17.038 18.5129 16.5207 18.6158C16.0033 18.7187 15.4671 18.6659 14.9797 18.4641C14.4924 18.2623 14.0759 17.9204 13.7828 17.4819C13.4898 17.0433 13.3334 16.5277 13.3334 16.0003C13.3341 15.2933 13.6154 14.6154 14.1154 14.1154C14.6153 13.6155 15.2933 13.3343 16.0004 13.3335ZM16.0004 12.0003C15.2092 12.0003 14.4358 12.2349 13.7779 12.6744C13.1201 13.114 12.6073 13.7387 12.3046 14.4696C12.0018 15.2005 11.9226 16.0047 12.0769 16.7807C12.2313 17.5566 12.6123 18.2693 13.1717 18.8287C13.7312 19.3881 14.444 19.7691 15.2199 19.9234C15.9959 20.0778 16.8002 19.9986 17.5312 19.6958C18.2621 19.3931 18.8869 18.8804 19.3265 18.2226C19.766 17.5648 20.0006 16.7914 20.0006 16.0003C20.0006 14.9394 19.5792 13.922 18.829 13.1719C18.0788 12.4217 17.0613 12.0003 16.0004 12.0003Z" fill="#FFA415"/>
</svg>