<svg xmlns:xlink="http://www.w3.org/1999/xlink" xmlns="http://www.w3.org/2000/svg" width="12" height="15" viewBox="0 0 12 15" fill="none"><script xmlns="" src="chrome-extension://hoklmmgfnpapgjgcpechhaamimifchmp/frame_ant/frame_ant.js"/>
<path d="M5.88511 0.742188C4.42691 0.743842 3.02891 1.32384 1.99781 2.35494C0.966709 3.38605 0.38671 4.78405 0.385056 6.24224C0.385056 10.9485 5.38511 14.503 5.59823 14.6517C5.6823 14.7106 5.78246 14.7422 5.88511 14.7422C5.98776 14.7422 6.08792 14.7106 6.17199 14.6517C6.38512 14.503 11.3852 10.9485 11.3852 6.24224C11.3835 4.78405 10.8035 3.38605 9.77241 2.35494C8.74131 1.32384 7.34331 0.743842 5.88511 0.742188ZM5.88511 4.24222C6.28068 4.24222 6.66736 4.35952 6.99626 4.57929C7.32516 4.79905 7.58151 5.11141 7.73289 5.47687C7.88426 5.84232 7.92387 6.24446 7.8467 6.63243C7.76953 7.02039 7.57905 7.37676 7.29934 7.65647C7.01963 7.93618 6.66326 8.12666 6.2753 8.20383C5.88733 8.281 5.48519 8.2414 5.11974 8.09002C4.75428 7.93864 4.44192 7.6823 4.22215 7.35339C4.00239 7.02449 3.88509 6.63781 3.88509 6.24224C3.88509 5.7118 4.09581 5.20309 4.47088 4.82801C4.84596 4.45294 5.35467 4.24222 5.88511 4.24222Z" fill="#FFA415"/>
</svg>