<svg width="26" height="26" viewBox="0 0 26 26" fill="none" xmlns="http://www.w3.org/2000/svg">
<g clip-path="url(#clip0_48_4)">
<path d="M24.1523 7.08941C23.1708 5.83545 21.6864 4.83366 19.9485 4.22426C20.3919 3.67751 20.7444 3.09119 20.9818 2.50137C21.0323 2.37575 21.0259 2.2343 20.9642 2.11377C20.9024 1.99323 20.7915 1.90542 20.6599 1.87299C19.1999 1.51343 17.4875 1.69175 15.8575 2.35676C15.588 1.45898 15.0587 0.670387 14.3315 0.0997309C14.1989 -0.00438589 14.0205 -0.0289836 13.8646 0.0354029C13.0145 0.386374 12.2914 1.0012 11.7889 1.78956C10.4019 0.713389 8.80562 0.0816186 7.30662 0.0330658C7.16984 0.0286253 7.0406 0.0831961 6.94864 0.18258C6.85656 0.281965 6.81215 0.416347 6.82682 0.550962C6.89524 1.17753 7.07338 1.83127 7.34822 2.47204C5.48031 2.5775 3.75023 3.1436 2.44789 4.09876C2.33869 4.17887 2.26957 4.30238 2.25853 4.43735C2.24743 4.57231 2.2954 4.70547 2.39011 4.80234C2.82282 5.24504 3.33072 5.64357 3.90266 5.99291C3.01533 6.71863 2.29522 7.5636 1.80379 8.47775C1.73964 8.59705 1.73041 8.73827 1.77843 8.86488C1.82646 8.9915 1.92707 9.09111 2.05421 9.1378C2.91034 9.45248 3.86369 9.61199 4.88774 9.61199C6.14842 9.61199 7.48056 9.35941 8.74001 8.88154C9.71013 8.51345 10.6051 8.02657 11.3898 7.45107C9.4811 13.6491 9.51347 21.7552 9.52655 24.9768C9.52667 25.0071 9.52679 25.0359 9.5269 25.0652H9.06071C8.80258 25.0652 8.5933 25.2745 8.5933 25.5326C8.5933 25.7908 8.80258 26 9.06071 26H9.99555H12.3326H13.2675C13.5256 26 13.7349 25.7908 13.7349 25.5326C13.7349 25.2745 13.5256 25.0652 13.2675 25.0652H12.7797C12.5603 20.1502 12.6735 15.5614 13.1187 11.4214C13.3594 9.18296 13.6432 7.58866 13.849 6.60931C14.5439 7.87087 15.5851 9.04887 16.8754 10.0025C18.6869 11.3414 20.7508 12.0788 22.687 12.0788C22.8741 12.0788 23.0612 12.0716 23.2428 12.0573C23.3778 12.0467 23.5016 11.9781 23.5821 11.8691C23.6626 11.7602 23.6919 11.6218 23.6624 11.4895C23.4345 10.4675 22.9632 9.45044 22.2959 8.50468C22.9196 8.32467 23.4967 8.08284 24.0178 7.78235C24.1352 7.71469 24.2174 7.59947 24.2432 7.46655C24.2689 7.33369 24.2358 7.19609 24.1523 7.08941ZM19.8686 2.67431C19.6349 3.10708 19.3308 3.53214 18.9699 3.92968C18.7602 3.87668 18.548 3.82895 18.3333 3.78723C17.3428 3.59489 16.3525 3.53459 15.3995 3.60313C15.4397 3.58174 15.4795 3.55983 15.5202 3.53898C16.9634 2.79976 18.5158 2.4957 19.8686 2.67431ZM13.9674 1.01674C14.4659 1.47785 14.8237 2.08105 15.0001 2.75693C14.5066 3.01635 14.0419 3.31321 13.6124 3.64432C13.2859 3.206 12.9157 2.79152 12.5071 2.40584C12.8597 1.80656 13.3664 1.3243 13.9674 1.01674ZM11.8043 3.02698C11.8489 3.06829 11.8921 3.11047 11.9357 3.15248C11.0046 2.8042 9.99461 2.57978 8.94316 2.49337C8.7524 2.47765 8.56227 2.46731 8.37285 2.461C8.13523 1.98365 7.95902 1.49538 7.85174 1.01849C9.20281 1.21253 10.6148 1.92493 11.8043 3.02698ZM3.47486 4.53714C4.92508 3.66261 6.85434 3.25964 8.86656 3.42504C9.20106 3.4525 9.53035 3.49591 9.85374 3.55288C8.89414 3.64747 7.91525 3.87826 6.97674 4.23437C6.16613 4.54193 5.40804 4.93246 4.72269 5.38819C4.26152 5.1359 3.84342 4.85119 3.47486 4.53714ZM8.40832 8.00747C7.25369 8.44555 6.03624 8.6771 4.88768 8.6771C4.18761 8.6771 3.52797 8.59478 2.91928 8.43188C3.85224 7.01836 5.42089 5.82458 7.30837 5.10844C8.46301 4.67035 9.68045 4.43881 10.829 4.43881C11.5291 4.43881 12.1887 4.52113 12.7974 4.68403C11.8645 6.09755 10.2958 7.29139 8.40832 8.00747ZM11.843 25.0652H10.4617C10.4616 25.035 10.4614 25.0043 10.4613 24.973C10.4486 21.8402 10.4103 12.3176 12.8271 6.16182C12.9023 6.07868 12.9756 5.99454 13.0468 5.90941C12.5724 7.97639 11.3715 14.4191 11.843 25.0652ZM17.431 9.25074C15.8078 8.051 14.6204 6.47744 14.1043 4.86451C15.7945 4.88724 17.6734 5.57416 19.274 6.75725C20.8971 7.95699 22.0845 9.53054 22.6006 11.1435C20.9105 11.1207 19.0316 10.4337 17.431 9.25074ZM21.6685 7.7033C21.1363 7.08771 20.5185 6.5146 19.8297 6.00547C19.0086 5.39859 18.1356 4.91581 17.2462 4.56869C17.5481 4.60094 17.8514 4.64593 18.155 4.70488C20.1366 5.08974 21.8854 5.99957 23.0451 7.23378C22.6209 7.42928 22.1602 7.58633 21.6685 7.7033Z" fill="#FF5528"/>
</g>
<defs>
<clipPath id="clip0_48_4">
<rect width="26" height="26" fill="white"/>
</clipPath>
</defs>
</svg>
