<svg xmlns:xlink="http://www.w3.org/1999/xlink" xmlns="http://www.w3.org/2000/svg" width="26" height="16" viewBox="0 0 26 16" fill="none">
<path d="M16.551 14.7632C16.6297 14.8839 16.6744 15.0236 16.6802 15.1675C16.6861 15.3115 16.653 15.4544 16.5844 15.5811C16.5157 15.7078 16.4142 15.8136 16.2904 15.8873C16.1666 15.961 16.0252 16 15.8811 16H1.12937C0.985288 16 0.843886 15.961 0.720103 15.8873C0.59632 15.8136 0.494752 15.7078 0.426132 15.5811C0.357511 15.4544 0.324385 15.3115 0.330254 15.1675C0.336122 15.0236 0.380768 14.8839 0.459472 14.7632C1.58541 13.0301 3.24154 11.7075 5.18075 10.9928C4.10871 10.2791 3.29481 9.23931 2.85941 8.02726C2.424 6.81522 2.3902 5.49523 2.76301 4.26249C3.13582 3.02975 3.89545 1.94971 4.92956 1.18208C5.96368 0.414457 7.21737 0 8.50525 0C9.79313 0 11.0468 0.414457 12.0809 1.18208C13.115 1.94971 13.8747 3.02975 14.2475 4.26249C14.6203 5.49523 14.5865 6.81522 14.1511 8.02726C13.7157 9.23931 12.9018 10.2791 11.8297 10.9928C13.769 11.7075 15.4251 13.0301 16.551 14.7632ZM25.3407 14.7482C24.2144 13.0224 22.562 11.7055 20.6284 10.9928C21.894 10.1402 22.7872 8.83749 23.1261 7.34966C23.465 5.86183 23.2242 4.30076 22.4527 2.98421C21.6813 1.66765 20.4371 0.694567 18.9734 0.263024C17.5098 -0.16852 15.9367 -0.0260857 14.5743 0.661334C14.5222 0.688231 14.4767 0.726253 14.4409 0.772706C14.4052 0.819159 14.38 0.872909 14.3673 0.930147C14.3547 0.987386 14.3547 1.04671 14.3675 1.10393C14.3803 1.16115 14.4055 1.21485 14.4413 1.26124C15.4544 2.52486 16.0361 4.07965 16.1014 5.69788C16.1668 7.31611 15.7122 8.91273 14.8043 10.2539C14.7456 10.3415 14.7239 10.4488 14.744 10.5524C14.764 10.6559 14.8241 10.7474 14.9113 10.8068C16.095 11.6329 17.1083 12.6795 17.8958 13.8893C18.2134 14.3757 18.3431 14.961 18.2608 15.5361C18.2515 15.5933 18.2548 15.6518 18.2703 15.7076C18.2859 15.7634 18.3135 15.8152 18.351 15.8593C18.3886 15.9034 18.4353 15.9389 18.4879 15.9632C18.5405 15.9875 18.5978 16 18.6557 16H24.6848C24.8609 16.0001 25.0321 15.942 25.1719 15.8348C25.3116 15.7276 25.4121 15.5772 25.4577 15.4071C25.4855 15.2952 25.4894 15.1787 25.4693 15.0652C25.4491 14.9517 25.4053 14.8437 25.3407 14.7482Z" fill="#FFA415"/>
</svg>