<svg xmlns:xlink="http://www.w3.org/1999/xlink" xmlns="http://www.w3.org/2000/svg" width="45" height="37" viewBox="0 0 45 37" fill="none"><script xmlns="" src="chrome-extension://hoklmmgfnpapgjgcpechhaamimifchmp/frame_ant/frame_ant.js"/>
<path d="M8.573 35.9809H2.51971C2.11718 35.9792 1.73161 35.8185 1.44697 35.5339C1.16233 35.2492 1.00168 34.8637 1 34.4612V26.8754C1.00168 26.4728 1.16233 26.0873 1.44697 25.8026C1.73161 25.518 2.11718 25.3573 2.51971 25.3557H8.59855M8.59855 36H22.2823L34.4144 32.9606L41.7959 29.8126C42.2727 29.5706 42.6811 29.2127 42.9835 28.7718C43.2902 28.3318 43.4752 27.8185 43.5199 27.284C43.5702 26.7512 43.484 26.2143 43.2695 25.7239C43.0551 25.2335 42.7193 24.8057 42.2939 24.4809C41.9078 24.1883 41.4602 23.9874 40.9849 23.8934C40.5079 23.8031 40.0165 23.8227 39.5482 23.9509L26.8223 26.8754H26.0624C26.6027 26.9456 27.1517 26.8997 27.6728 26.7409C28.194 26.5821 28.6752 26.314 29.0845 25.9544C29.4938 25.5948 29.8217 25.1521 30.0464 24.6558C30.271 24.1595 30.3872 23.6209 30.3872 23.0761C30.3872 22.5313 30.271 21.9928 30.0464 21.4964C29.8217 21.0001 29.4938 20.5574 29.0845 20.1978C28.6752 19.8383 28.194 19.5701 27.6728 19.4113C27.1517 19.2525 26.6027 19.2067 26.0624 19.2768H16.5674C15.9676 19.2721 15.3729 19.3872 14.8181 19.6152C14.2633 19.8433 13.7596 20.1798 13.3365 20.605L8.57939 25.3557M8.57939 36V25.3365M29.1082 8.53671V10.331M29.1082 19.3088V20.5284M26.4136 19.3151H30.4555C30.7544 19.3219 31.0516 19.2698 31.3303 19.1619C31.61 19.0523 31.8658 18.8897 32.0838 18.683C32.2999 18.4734 32.4713 18.2222 32.5876 17.9445C32.7039 17.6669 32.7628 17.3685 32.7606 17.0675C32.7615 16.7695 32.7029 16.4742 32.5882 16.1991C32.4707 15.9213 32.2993 15.6695 32.0838 15.4584C31.8658 15.2517 31.61 15.0891 31.3303 14.9795C31.0516 14.8716 30.7544 14.8195 30.4555 14.8263H27.7609C27.4621 14.8335 27.1647 14.7814 26.8861 14.673C26.6052 14.5658 26.349 14.4029 26.1327 14.1941C25.9162 13.9862 25.7444 13.7362 25.628 13.4595C25.5117 13.1828 25.4531 12.8852 25.4558 12.585C25.455 12.2849 25.5136 11.9876 25.6282 11.7102C25.8056 11.2943 26.1037 10.9412 26.4839 10.6965C26.8641 10.4517 27.3089 10.3267 27.7609 10.3374H31.7965M36.2662 24.5575C36.7195 24.0147 37.7795 22.2588 37.7795 22.2588C38.7373 20.6433 38.9225 18.4276 38.3159 15.7521C37.5816 11.7294 34.8486 8.31961 32.5244 6.14221H23.9233C21.2056 8.7684 19.2656 12.0938 18.317 15.7521C18.0418 16.8992 17.9279 18.0791 17.9786 19.2577M21.1336 26.8856H27.2833M24.7279 6.14222C24.5996 6.14423 24.4727 6.11578 24.3575 6.0592C23.4189 5.56115 21.9567 4.34794 21.8034 3.03256C21.7681 2.69441 21.8234 2.35293 21.9637 2.04322C22.1039 1.7335 22.3241 1.4667 22.6016 1.27021C22.8813 1.06611 23.2287 0.976998 23.5721 1.02119C23.7301 1.03028 23.8842 1.07318 24.0241 1.14699C24.164 1.2208 24.2864 1.32378 24.3831 1.44899C24.626 1.81616 24.9464 2.12566 25.3217 2.35572C25.9322 1.74339 26.702 1.31426 27.5438 1.11696C28.0765 0.983621 28.6313 0.964042 29.1721 1.0595C30.1787 1.24529 31.0963 1.75683 31.7837 2.51535C32.1986 2.3744 32.5554 2.1006 32.799 1.73634C32.907 1.57809 33.0531 1.44953 33.2238 1.36249C33.3945 1.27546 33.5844 1.23276 33.7759 1.23829C33.9659 1.22544 34.1561 1.25746 34.3314 1.33178C34.5067 1.4061 34.662 1.52063 34.7848 1.66609C35.2892 2.38125 36.0619 4.22023 31.9369 6.07836C31.8366 6.12327 31.7275 6.14509 31.6177 6.14222H24.7279Z" stroke="#FF5528" stroke-width="1.5" stroke-linecap="round" stroke-linejoin="round"/>
</svg>