<svg xmlns:xlink="http://www.w3.org/1999/xlink" xmlns="http://www.w3.org/2000/svg" width="32" height="23" viewBox="0 0 32 23" fill="none"><script xmlns="" src="chrome-extension://hoklmmgfnpapgjgcpechhaamimifchmp/frame_ant/frame_ant.js"/>
<path d="M24.8336 13.429L19.8336 18.429L11.8336 16.429L4.83359 11.429M24.8336 13.429L19.8336 9.42896C17.4586 11.8202 14.4873 11.9165 12.2986 10.5177C12.1718 10.4375 12.0647 10.3299 11.9851 10.2027C11.9056 10.0755 11.8557 9.93202 11.8391 9.78292C11.8226 9.63383 11.8398 9.48292 11.8894 9.34136C11.9391 9.19981 12.02 9.07125 12.1261 8.96521L17.8336 3.42896H22.8336M24.8336 13.429L26.8336 11.429M4.83359 11.429L1.38609 9.7052C1.14914 9.58642 0.969045 9.37844 0.885369 9.12694C0.801694 8.87544 0.821285 8.60101 0.939839 8.36396L4.12984 1.98145C4.18865 1.86397 4.27004 1.75923 4.36935 1.67321C4.46866 1.58719 4.58395 1.52159 4.70862 1.48015C4.8333 1.4387 4.96492 1.42224 5.09596 1.43168C5.227 1.44113 5.3549 1.47631 5.47234 1.5352L8.91859 3.2577M4.83359 11.429L8.91859 3.2577M8.91859 3.2577L15.8336 1.42896L22.7486 3.2577M22.7486 3.2577L26.1948 1.5352C26.3123 1.47631 26.4402 1.44113 26.5712 1.43168C26.7023 1.42224 26.8339 1.4387 26.9586 1.48015C27.0832 1.52159 27.1985 1.58719 27.2978 1.67321C27.3971 1.75923 27.4785 1.86397 27.5373 1.98145L30.7273 8.36396C30.8459 8.60101 30.8655 8.87544 30.7818 9.12694C30.6981 9.37844 30.518 9.58642 30.2811 9.7052L26.8336 11.429M22.7486 3.2577L26.8336 11.429M15.3411 21.429L10.1261 20.1252L6.83359 17.7727" stroke="white" stroke-width="1.5" stroke-linecap="round" stroke-linejoin="round"/>
</svg>