<svg xmlns:xlink="http://www.w3.org/1999/xlink" xmlns="http://www.w3.org/2000/svg" width="32" height="30" viewBox="0 0 32 30" fill="none">
<path d="M14.6506 1.02115C15.3618 -0.283076 17.2346 -0.283076 17.9458 1.02115L21.572 7.67019C21.8419 8.16514 22.3201 8.51252 22.8742 8.61629L30.3184 10.0103C31.7786 10.2838 32.3573 12.0648 31.3367 13.1443L26.1336 18.6477C25.7463 19.0574 25.5637 19.6194 25.6362 20.1785L26.6108 27.6891C26.802 29.1623 25.2869 30.2631 23.9449 29.626L17.103 26.3783C16.5937 26.1365 16.0027 26.1365 15.4934 26.3783L8.65154 29.626C7.3095 30.2631 5.79444 29.1623 5.9856 27.6891L6.96017 20.1785C7.03272 19.6194 6.85009 19.0574 6.46278 18.6477L1.25971 13.1443C0.239119 12.0648 0.817819 10.2838 2.27801 10.0103L9.72218 8.61629C10.2763 8.51252 10.7544 8.16514 11.0244 7.67019L14.6506 1.02115Z" fill="#FFBE1B"/>
</svg>