<svg xmlns:xlink="http://www.w3.org/1999/xlink" xmlns="http://www.w3.org/2000/svg" width="22" height="27" viewBox="0 0 22 27" fill="none">
<path d="M13.7177 7.24468C16.4104 9.11119 21.0478 14.5531 21.0478 18.5938C21.0478 22.6844 19.3303 26 11.0239 26C2.71758 26 1 22.6844 1 18.5938C1 14.5531 5.63746 9.11119 8.33015 7.24468M13.7177 7.24468L15.7636 3.34752C15.8467 3.20254 15.8981 3.04162 15.9146 2.87533C15.931 2.70904 15.9121 2.54115 15.859 2.38271C15.8059 2.22427 15.7199 2.07886 15.6066 1.95605C15.4933 1.83324 15.3552 1.7358 15.2016 1.67016C12.4803 0.776613 9.54469 0.776613 6.82346 1.67016C6.67224 1.73781 6.53688 1.83642 6.42613 1.95962C6.31538 2.08283 6.23169 2.22789 6.18047 2.38544C6.12925 2.54299 6.11164 2.70953 6.12877 2.8743C6.1459 3.03908 6.19739 3.19844 6.27993 3.34208L8.33015 7.24468M13.7177 7.24468H8.33015M2.71781 8.9481C3.8538 7.24465 5.55725 6.67611 7.82706 6.67611C7.82706 6.67611 6.69107 4.40521 3.28417 4.97266M11.172 22.148C11.172 22.148 6.50358 19.4737 6.50358 16.3215C6.50358 15.6372 6.75915 14.9809 7.21407 14.497C7.66899 14.0131 8.286 13.7413 8.92936 13.7413C9.94662 13.7413 10.8121 14.3289 11.1736 15.2695C11.5359 14.3289 12.4045 13.7413 13.4186 13.7413C14.062 13.7413 14.679 14.0131 15.1339 14.497C15.5888 14.9809 15.8444 15.6372 15.8444 16.3215C15.8413 19.4737 11.172 22.148 11.172 22.148Z" stroke="#8139E7" stroke-width="1.2" stroke-linecap="round" stroke-linejoin="round"/>
</svg>